<svg xmlns="http://www.w3.org/2000/svg" width="542.7101" height="291.8785" viewBox="0 0 542.7101 291.8785"><title>resources_banner-new</title><g style="isolation:isolate"><path d="M456.9271,238.676c-.3757,1.6535-.8152,3.18-1.1193,4.6857a34.9126,34.9126,0,0,0-.6115,4.3812c-.232,2.8475-.0018,5.7294-.0949,8.9808-.0087.7943-.0647,1.65-.13,2.44-.0593.7951-.1548,1.6023-.26,2.411a34.4855,34.4855,0,0,1-.9821,4.8878,24.0992,24.0992,0,0,1-1.88,4.7574,17.9482,17.9482,0,0,1-1.4967,2.347l.7478-.2955,1.5514-.6125c.5158-.209,1.0264-.4371,1.54-.6543l3.0763-1.32c.7032-.2942,1.3965-.62,2.09-.9461a10.8249,10.8249,0,0,0,.9626-.5032,27.2679,27.2679,0,0,0,.0169-8.5063c-.2217-1.7133-.5183-3.4376-.78-5.2243l-.0972-.6727-.0794-.7118q-.081-.7128-.147-1.4291c-.0413-.9721-.13-1.93-.1109-2.9208a27.8315,27.8315,0,0,1,2.4888-11.8255,30.3813,30.3813,0,0,1,7.0879-9.5642c-1.39,3.7022-2.8928,7.1519-3.8032,10.5861a39.5187,39.5187,0,0,0-1.3023,10.2683c-.0313.8623.0415,1.7276.0633,2.5923.0831.8766.1146,1.7008.1982,2.6344a43.6881,43.6881,0,0,1,.131,5.6984,22.028,22.028,0,0,1-1.0537,5.9487,15.5215,15.5215,0,0,1-1.0669,2.4564c1.51-.7163,3.009-1.4636,4.508-2.2105q1.3957-.7084,2.7788-1.4494l.0034-.0651c.0405-.0011.0807.0007.1212,0,.1866-.1.3715-.2036.5573-.3042a27.7393,27.7393,0,0,0,.0246-8.8842c-.2022-1.6613-.5063-3.3212-.7652-5.03-.144-.8567-.2663-1.7048-.3858-2.6125-.1219-.9359-.1838-1.8813-.2153-2.8287a31.6367,31.6367,0,0,1,1.6406-11.3828,27.2162,27.2162,0,0,1,2.4692-5.3245,20.1733,20.1733,0,0,1,3.6353-4.5179c-.5259,1.8539-1.03,3.5963-1.4276,5.3332-.4077,1.73-.7194,3.438-.9818,5.1314a63.7373,63.7373,0,0,0-.7158,10.0711c.0156.8289.0635,1.6511.12,2.4665.0625.843.1464,1.74.1892,2.6326a43.5226,43.5226,0,0,1,.027,5.5359,23.4736,23.4736,0,0,1-1.0593,5.723,15.7971,15.7971,0,0,1-1.3492,3.0186c2.4442-1.3492,4.8621-2.7612,7.2379-4.2592.08-.226.1486-.4535.2222-.68a30.1505,30.1505,0,0,0-.1046-9.0568c-.2193-1.7269-.541-3.4512-.8149-5.2241-.1515-.8875-.2819-1.77-.4087-2.7035-.13-.9658-.2027-1.9408-.2431-2.9191a33.5328,33.5328,0,0,1,1.5287-11.7839,28.5978,28.5978,0,0,1,2.4441-5.562,20.9917,20.9917,0,0,1,3.6659-4.77c-.5136,1.9273-1.0038,3.7408-1.3825,5.5477-.3939,1.7994-.6789,3.5782-.9259,5.3392a70.3562,70.3562,0,0,0-.6087,10.48c.0243.8626.0785,1.7184.1425,2.5674.07.8816.1583,1.8079.2071,2.734a46.6022,46.6022,0,0,1,.06,5.728,25.1415,25.1415,0,0,1-1.0228,5.924,16.3283,16.3283,0,0,1-1.62,3.6412q2.73-1.7586,5.3877-3.651c.1924-.4831.3673-.9682.5292-1.4555a33.135,33.135,0,0,0,.2676-8.4689c-.2482-3.2835-.74-6.5705-.9936-10.063l-.085-1.3254-.0427-1.3386c-.0206-.896-.0265-1.7974.01-2.7065a31.2893,31.2893,0,0,1,.7017-5.5057,24.9815,24.9815,0,0,1,1.8264-5.4111,16.8637,16.8637,0,0,1,3.2479-4.7387c-.197,1.8784-.3937,3.5954-.5062,5.2893-.1192,1.6891-.1937,3.335-.2409,4.979-.045,1.6434-.0595,3.2823-.076,4.9355l-.0167,2.489.03,2.507a68.5856,68.5856,0,0,1-.3541,10.6133,26.1919,26.1919,0,0,1-1.3151,5.4827,16.95,16.95,0,0,1-1.857,3.6833c-.055.1118-.1005.228-.1582.3383.0512-.0373.1029-.0735.154-.1109l-.0026-.02c.0141-.003.028-.0048.0419-.0076,1.1409-.8331,2.2745-1.6783,3.3917-2.5507,1.2245-.9552,2.4258-1.9456,3.616-2.9516.1872-.5108.3543-1.0218.511-1.5339a32.8053,32.8053,0,0,0,.24-8.031c-.2376-3.24-.7206-6.4845-.9665-9.935l-.0819-1.31-.04-1.3229c-.0183-.8855-.0221-1.7767.0158-2.6754a31.0242,31.0242,0,0,1,.7129-5.44,24.5226,24.5226,0,0,1,1.8341-5.34,16.575,16.575,0,0,1,3.2419-4.6581c-.2035,1.856-.4063,3.5513-.5249,5.2232-.1252,1.6669-.2051,3.291-.2575,4.9129-.0464,1.6207-.0764,3.2382-.0894,4.8683l-.0223,2.4558.0251,2.4743a67.09,67.09,0,0,1-.372,10.4837,25.6207,25.6207,0,0,1-1.3238,5.4144,16.9665,16.9665,0,0,1-1.6317,3.2883c-.0112.0223-.02.0456-.0308.0678q3.9751-3.4526,7.6691-7.2638a36,36,0,0,0,.6834-7.7815c-.0309-3.1377-.32-6.2615-.5351-9.4967-.0623-.8161-.101-1.6419-.1325-2.4744-.0331-.8345-.0584-1.6757-.05-2.5268a30.8575,30.8575,0,0,1,.4771-5.2139,22.0933,22.0933,0,0,1,1.59-5.2262,14.1139,14.1139,0,0,1,3.1269-4.5271c-.221,1.7908-.3832,3.4057-.4433,4.9955-.0659,1.5845-.0677,3.1261-.0453,4.6776l.1113,4.6913.04,2.3982c.02.806.0392,1.6174.041,2.4376a47.881,47.881,0,0,1-.7949,10.26,25.2253,25.2253,0,0,1-1.6174,5.1457l-.01.0212c1.5037-1.6427,2.977-3.3183,4.3964-5.0462q.2358-.48.4473-.9654a21.9863,21.9863,0,0,0,.6572-6.5016c-.0809-2.6151-.4412-5.2435-.5678-8.1l-.0355-1.09.0069-1.1009c.0138-.7379.0428-1.4806.1126-2.2292a22.0361,22.0361,0,0,1,.8943-4.5039,15.4551,15.4551,0,0,1,5.05-7.7594c-.2891,1.53-.579,2.9084-.7858,4.2634-.2124,1.35-.3756,2.6556-.5039,3.957-.1261,1.3011-.2146,2.5968-.2948,3.9065l-.1064,1.9758-.052,1.9973a47.0619,47.0619,0,0,1-.6392,8.6379,18.8112,18.8112,0,0,1-1.135,3.6933c.5627-.72,1.128-1.4371,1.6817-2.1658l.8126-1.0844-.0484-.0526c.2346-.269.458-.5474.673-.8315a17.863,17.863,0,0,0,.9831-2.5087,20.3276,20.3276,0,0,0,.7047-3.4749c.2858-2.3305.2755-4.72.5266-7.3289.06-.6615.15-1.3263.2624-1.9945s.2378-1.34.4079-2.01a19.05,19.05,0,0,1,1.467-3.9419,13.1886,13.1886,0,0,1,5.6867-6.0088c-.4842,1.3359-.9549,2.5244-1.3451,3.7012-.3951,1.1712-.736,2.3036-1.0388,3.4355-.2978,1.1325-.5672,2.2624-.81,3.411-.1227.574-.2468,1.1518-.3585,1.7353l-.3042,1.7683c-.2008,1.2652-.3964,2.6015-.6756,3.968.0749-.1227.144-.25.22-.3715a66.6126,66.6126,0,0,1,5.1632-7.1908,86.7822,86.7822,0,0,1,5.8846-6.589,51.663,51.663,0,0,1,6.7664-5.8541q-.4324,1.1325-.9266,2.213l0,0-.0011.0021c-.2137.4713-.4366.9351-.6642,1.3945q-.0611.1239-.1229.2478-.6866,1.3673-1.4343,2.6832-.0858.1521-.1723.3041-.3634.6378-.7343,1.27h0q-.57.9609-1.167,1.9008c-1.1919,1.88-2.456,3.7-3.77,5.478q-1.9584,2.6779-4.1574,5.1552-.7356.824-1.5014,1.6222-.7626.8016-1.5654,1.5689t-1.6427,1.5039q-.3653.3171-.7381.6274c-.208.1738-.42.344-.6326.5139-.0322.0256-.0639.052-.0964.0773-.2383.1894-.4819.3744-.7282.5572l-.0166.0123q-.38.2817-.7751.5507l-.0339.0469c.2862-.143.5758-.276.8682-.3918.1162-.0476.2329-.09.3494-.1329.0228-.0149.0465-.0274.0693-.042.1261-.0815.2549-.1568.3836-.2334.1438-.0856.2876-.1692.4341-.2488.1259-.0687.2518-.135.3793-.1992.1691-.0851.3394-.1652.5106-.243.1046-.0475.2081-.0968.3134-.1418.2795-.1192.56-.2318.8421-.3332a26.0857,26.0857,0,0,1,5.5486-1.1967c.5927-.075,1.1744-.1419,1.7408-.2117l1.6668-.2292c.5507-.0879,1.0971-.19,1.6392-.29s1.0812-.205,1.6184-.3186,1.0726-.2343,1.6092-.3631c.5365-.131,1.0735-.2724,1.6157-.426s1.09-.3189,1.647-.4981c1.12-.3535,2.2545-.7924,3.5272-1.2371a10.9394,10.9394,0,0,1-1.1058,1.805,13.9008,13.9008,0,0,1-4.8091,3.9455,16.3452,16.3452,0,0,1-3.759,1.3544c-.6344.1453-1.2682.2448-1.8982.3272s-1.2549.1436-1.8758.1726c-1.2244.0638-2.3942.0607-3.5313.0642s-2.2427.0134-3.3377.1032a17.5482,17.5482,0,0,0-2.4579.3581q-.4108.0914-.8238.207-.411.1164-.8251.2622-.3988.1405-.8015.3093l-.0294.0113q-.8361.35-1.6946.8127l-.005.0069q-1.5633,2.1226-3.1733,4.2156l.03-.0158a11.984,11.984,0,0,1,1.0792-.5616,13.4308,13.4308,0,0,1,2.0972-.7547c.4458-.1213.8932-.2147,1.3405-.2965.2645-.0486.53-.0972.7933-.134a23.7654,23.7654,0,0,1,3.14-.1986c1.71-.003,3.3578.14,4.93.2561l1.8576.1157,1.8425.0558c.6114.0132,1.2194.0241,1.8267.0288s1.2146.0028,1.8236-.009,1.2206-.0346,1.8379-.0678,1.2417-.0761,1.8773-.1318c1.2755-.1051,2.5792-.2967,4.0241-.4749a11.6978,11.6978,0,0,1-.773.8872,13.1543,13.1543,0,0,1-3.1206,2.3582,16.0987,16.0987,0,0,1-3.74,1.49,17.9375,17.9375,0,0,1-3.5861.5413c-.2239.0113-.4482.0258-.67.029-.35.005-.6983,0-1.0446-.0133s-.6906-.0333-1.0335-.0575l-1.0223-.0873-1.0079-.1311c-2.64-.38-5.0484-.9915-7.4685-1.3023-.401-.0537-.8031-.0937-1.2063-.1264-.1-.0085-.2009-.0159-.3014-.0224a17.8532,17.8532,0,0,0-2.4876.0027q-.1508.011-.3019.0246c-.42.0384-.8431.0885-1.2742.1626-.0625.0293-.1265.0545-.1882.086-.1874.0944-.3734.1932-.5623.2827l-.0057.0027a1.6631,1.6631,0,0,0-.2109.116c-.0677.0428-.1347.0875-.2033.1277-.1255.1575-.2471.3177-.3728.4742q-1.1862,1.4865-2.4207,2.9308l-.0553.0658q-1.2432,1.458-2.5284,2.8772c.04-.02.0812-.0347.1209-.0545.4712-.237.9489-.4587,1.4354-.6492l.001,0a18.871,18.871,0,0,1,2.4455-.774,23.79,23.79,0,0,1,2.4755-.4643c.8261-.1085,1.6467-.1769,2.4606-.2129q.61-.0267,1.2156-.03a48.04,48.04,0,0,1,5.9008.3744c.7592.0808,1.5091.179,2.2536.2773l2.2169.2722,4.3341.5677c.717.0865,1.4326.1659,2.1533.234s1.4458.1248,2.1826.1655c.7389.044,1.4863.0613,2.2588.0592s1.57-.023,2.41-.0556a13.0066,13.0066,0,0,1-4.4919,2.9121q-.6135.2486-1.2369.4426a19.1164,19.1164,0,0,1-3.7547.7586,23.5109,23.5109,0,0,1-2.4685.1256c-.8131-.0009-1.616-.0415-2.4056-.114s-1.5656-.18-2.3352-.2952c-.768-.1135-1.5288-.234-2.2789-.379-2.9753-.54-5.8407-1.1477-8.7434-1.4809-.528-.0613-1.0565-.1093-1.5872-.1483-.0843-.0061-.1685-.0127-.2528-.0183a27.4817,27.4817,0,0,0-5.2781.1327l-.0007,0c-.2914.1164-.5821.2349-.8685.3667q-3.0871,3.2772-6.396,6.3071l.0144-.0024a14.8265,14.8265,0,0,1,2.57-.864c.43-.1047.8612-.191,1.2922-.2611a20.5418,20.5418,0,0,1,2.58-.2446q.6413-.0217,1.2752-.0121c.8464.0158,1.6807.069,2.5031.15q.6168.0606,1.2246.14c2.0268.2644,3.9818.6679,5.875,1.05l2.2474.4369,2.2388.3828c1.486.2563,2.9629.4921,4.4454.7115.7428.106,1.4865.205,2.2374.2953s1.5077.172,2.2765.2431c.7708.0753,1.55.1291,2.3522.1753s1.6271.0844,2.4884.1295a12.474,12.474,0,0,1-1.1115.8575q-.5742.394-1.1785.7241a17.5505,17.5505,0,0,1-2.4865,1.1108,19.4255,19.4255,0,0,1-3.87.9353q-.6477.09-1.2935.14a24.4775,24.4775,0,0,1-5.07-.1394c-.412-.0543-.8206-.1192-1.2266-.1912s-.8091-.1522-1.2107-.235l-.5987-.1312-.5988-.1307L512.66,252.45c-2.3248-.6259-4.5215-1.375-6.7022-2.0443-.7268-.2231-1.4517-.4373-2.1792-.6348l-.0089-.0025c-.322-.0872-.64-.1692-.9582-.2488-.1022-.0255-.2046-.05-.3069-.0746q-.3522-.0848-.7061-.1621c-.1086-.0239-.2173-.0482-.3262-.0713-.312-.0648-.6246-.1262-.94-.181-.0575-.01-.1151-.0189-.1726-.0288q-.43-.0717-.8663-.1288c-.1194-.0157-.24-.029-.3595-.0429q-.3447-.04-.6941-.0684c-.1216-.01-.2432-.0211-.3655-.0291-.3305-.0218-.6634-.0378-1.0008-.0433-.1666.0414-.3311.0919-.4961.1386-.215.06-.4311.1164-.6437.1866-.3971.1321-.79.2787-1.1769.4465l-.0177-.0673q-1.1091.974-2.2368,1.9235t-2.278,1.8646c-.35.2753-.7054.54-1.0582.81.1381-.0327.2774-.0551.4163-.0836.1186-.0244.2366-.05.3559-.0714.388-.07.7766-.1287,1.1649-.1674a20.0424,20.0424,0,0,1,5.152.1964,38.7243,38.7243,0,0,1,5.98,1.5221c.7634.2509,1.5147.5124,2.2561.7745q.5562.1965,1.1046.392l2.1737.7552,2.1717.7c1.4437.4594,2.8745.917,4.318,1.3437,1.4448.4244,2.8989.8207,4.4036,1.1822,1.507.37,3.0586.6584,4.75.9929h0a13.1059,13.1059,0,0,1-3.0994,1.4966,17.8786,17.8786,0,0,1-1.9628.5573,18.3662,18.3662,0,0,1-2.6324.3607,20.6329,20.6329,0,0,1-2.6044.0019q-.645-.0384-1.28-.1129t-1.2607-.1821a24.6016,24.6016,0,0,1-2.4541-.5544c-.8019-.2239-1.5847-.4906-2.3587-.7706l-1.153-.431-1.1291-.472c-2.9669-1.275-5.6865-2.7406-8.4733-3.949q-.6727-.2916-1.3519-.5585c-.0846-.0335-.17-.0659-.2549-.0988a24.5994,24.5994,0,0,0-4.52-1.31c-.1543.0136-.3078.0348-.4618.053-.2037.0238-.4078.0435-.61.0757-.3755.06-.7493.1322-1.12.2232q-2.3618,1.7307-4.7821,3.3542l0,0c.2955-.0241.5912-.0327.8867-.0343.0707,0,.1407,0,.2115,0,.2933.0037.586.014.8762.0381h.0031a15.6214,15.6214,0,0,1,3.8143.8332c.4056.14.8042.2917,1.1956.4534q.5856.2484,1.1532.52c.7566.3626,1.49.7536,2.2,1.1643q.5326.3083,1.0489.63c.3466.2055.69.4227,1.0269.639s.6679.4331.989.6377c.6248.3918,1.2583.7783,1.9117,1.1338q.9851.5276,2,1.0008a47.28,47.28,0,0,0,6.32,2.3985c1.4585.4291,2.95.8078,4.5,1.1053.7746.1462,1.5624.2853,2.3684.4029l2.4781.3389a16.1332,16.1332,0,0,1-3.7841,1.5157q-.65.1731-1.3072.3-.6562.1255-1.3171.208a20.2489,20.2489,0,0,1-2.6394.1575q-.6577-.0036-1.31-.0507a22.7423,22.7423,0,0,1-9.7751-3.0124,22.3374,22.3374,0,0,1-2.17-1.3838c-.6762-.4969-1.2987-.9684-1.9217-1.4672-.6261-.4833-1.2377-.9721-1.8477-1.4512s-1.2178-.9478-1.8363-1.3913c-.2656-.1953-.5328-.3851-.8012-.5723-.101-.07-.2025-.139-.3043-.2079-.1676-.1142-.3369-.2254-.5064-.3354-.1279-.0828-.2554-.1664-.3843-.247-.1554-.0971-.3138-.1893-.4713-.283q-.3924-.2313-.7947-.4474c-.0929-.05-.1859-.1-.28-.1483q-.294-.1511-.5943-.2928c-.066-.0314-.1334-.06-.2-.0911-.4557-.2073-.922-.4-1.4056-.5711l-.0007,0c-.27-.0138-.54-.02-.81-.0184-.28.0038-.56.013-.8394.0361q-1.7669,1.13-3.5607,2.203c-.6839.41-1.3758.8011-2.0648,1.1989-.4864.2807-.9684.5711-1.457.8461.2945-.0036.588.0072.8808.0254.0631.0039.1258.0078.1887.0127.2933.0232.5859.053.8748.0963a15.917,15.917,0,0,1,3.796,1.0895c.4008.1672.7943.3467,1.18.5349a33.11,33.11,0,0,1,4.3209,2.62c.6789.4607,1.342.9646,1.9725,1.4218.3057.2192.6142.4371.9261.6506s.6275.4224.9485.6245a47.3356,47.3356,0,0,0,8.2194,4.0036c1.4483.5316,2.9311,1.0209,4.4766,1.4252,1.5458.4166,3.1462.73,4.8439,1.0744q-.6285.3063-1.2753.548a16.7931,16.7931,0,0,1-2.629.7429q-.6658.1327-1.3354.2176a20.306,20.306,0,0,1-5.3247-.0322,22.0069,22.0069,0,0,1-3.8364-.8726,24.03,24.03,0,0,1-5.843-2.8233,23.2083,23.2083,0,0,1-2.1136-1.54c-.3271-.2724-.6425-.538-.9515-.8041s-.6113-.5319-.9131-.8043q-.4561-.3972-.903-.7963c-.8951-.7965-1.7719-1.5885-2.676-2.3234-.2657-.2213-.5333-.437-.8024-.65-.0881-.07-.1773-.1383-.2661-.2069q-.2808-.2176-.5657-.4277c-.1041-.0766-.2078-.1532-.3125-.2284-.2063-.1479-.4155-.2911-.6261-.4322-.1-.0665-.1989-.1345-.3-.2q-.3735-.2415-.7588-.4676c-.1275-.0748-.2578-.1461-.3875-.2181q-.2588-.1439-.5228-.28c-.1416-.0726-.2834-.1447-.4275-.214-.1927-.0928-.39-.18-.5882-.2665-.1262-.055-.25-.1135-.3787-.1655h0c-.3907-.0386-.7827-.0655-1.177-.0666q-1.6251.878-3.2645,1.7178l-3.0473,1.5218c-.138.07-.278.133-.4176.1977l0,.0005a11.3214,11.3214,0,0,1,1.3421.289,13.3521,13.3521,0,0,1,1.3034.4375,15.9132,15.9132,0,0,1,2.43,1.2162c.3845.2338.7587.4805,1.1219.7369a33.7966,33.7966,0,0,1,4.0016,3.3674c.4649.458.9031.8532,1.3374,1.2658.1446.1377.2892.277.4341.4213.3031.2566.599.5252.8984.787s.6025.518.92.7486q.9194.7468,1.8833,1.4048t1.9721,1.2311q.5011.2937,1.0164.5616a28.8429,28.8429,0,0,0,3.2147,1.4175,83.0361,83.0361,0,0,0,9.7378,2.4327,23.7306,23.7306,0,0,1-10.8766,1.2528,19.1157,19.1157,0,0,1-3.9971-1.0055,20.4334,20.4334,0,0,1-5.879-3.3746c-.36-.2731-.698-.5669-1.0308-.8664s-.6591-.6054-.9949-.9013q-.4756-.4694-.9387-.9527l-.464-.48-.426-.4748c-1.1292-1.2645-2.1936-2.5265-3.2931-3.7109-.2415-.26-.4854-.5134-.7308-.7649-.0682-.07-.1367-.1389-.2053-.2079q-.32-.3222-.6465-.6334c-.0452-.0426-.0894-.0866-.1343-.1291q-.3769-.3531-.7682-.6876c-.0746-.064-.15-.1264-.2255-.1892q-.3156-.2642-.6432-.5149c-.0719-.0549-.1426-.1115-.2154-.1655q-.4115-.3061-.8451-.59c-.0767-.05-.1562-.0976-.2341-.1466-.1374-.0864-.2807-.1669-.4214-.25-.225-.0525-.4514-.1-.6788-.14-.2423-.0416-.4853-.0784-.73-.1052l-.0867.0394c-.1062.0485-.2638.1209-.4091.1875l-.3655.1682c-.7045.3258-1.4083.6514-2.1216.945l-3.1109,1.3117c-.519.2162-1.0353.4429-1.5566.65l-1.1849.46c.0275.0018.0544.0075.0818.01.445.0323.888.0808,1.3251.155a16.2622,16.2622,0,0,1,3.2824.9485q.5258.2116,1.0349.4536a24.55,24.55,0,0,1,3.8218,2.287q.4468.3216.8846.6516t.8555.6757c.2789.2268.5669.4661.85.7121s.5631.4981.825.7512c1.09,1.0106,2.0672,2.0331,3.0228,3.0078a35.894,35.894,0,0,0,2.8925,2.7189,25.475,25.475,0,0,0,3.2518,2.29c.2947.1757.5956.3448.902.5108.6124.3325,1.2464.6536,1.8946.9939.3242.17.652.345.9823.5287a13.3058,13.3058,0,0,1-6.9383-.136,13.4127,13.4127,0,0,1-2.1774-.8358c-.3369-.1664-.6664-.3464-.9888-.5357l-.0335-.0183c-.36-.212-.708-.4394-1.0477-.6758a18.3608,18.3608,0,0,1-1.7121-1.3455c-.5639-.4881-1.0921-.9931-1.6023-1.4969s-1.0016-1.0059-1.4922-1.4887l-1.48-1.4224-1.52-1.4283c-1.0114-.94-2.0158-1.8637-3.0641-2.7227-.3325-.2766-.67-.5449-1.0109-.8084-.07-.0541-.1409-.1075-.2113-.161-.3368-.2554-.6768-.5062-1.025-.748l-.0112-.0082a26.4544,26.4544,0,0,0-2.4458-1.51l-.0012,0-.0107-.0015c-.3175-.0653-.6316-.12-.9472-.1651-.2777-.039-.5569-.0681-.8367-.0918-.0447-.0038-.0888-.011-.1337-.0144l-.734.2847c-2.0965.7784-4.2074,1.4909-6.31,2.2394l-.17-.8274h0l-.1417-.6887c2.0815-.77,4.1693-1.5136,6.2445-2.3049l.8266-.3262.0054-.0321c.0179.0026.0351.007.053.0089l.33-.13a38.18,38.18,0,0,0,1.3354-7.8389c.1182-1.4907.1663-2.9838.2079-4.4944l.0526-2.28.0306-2.24c.0053-1.5-.0371-3.0541.0559-4.6918a23.9059,23.9059,0,0,1,.7686-5.039,19.447,19.447,0,0,1,2.0464-4.8111A17.9007,17.9007,0,0,1,456.9271,238.676Z" style="fill:#04647a"/><path d="M78.428,211.1689c.3115,1.37.6757,2.6354.9278,3.8837a28.9548,28.9548,0,0,1,.5068,3.6311c.1923,2.36.0014,4.7487.0786,7.4436.0073.6583.0537,1.3672.1082,2.0227.0491.6589.1283,1.3279.2157,1.9982a28.6,28.6,0,0,0,.8139,4.0512,19.9792,19.9792,0,0,0,1.5581,3.9429,14.8731,14.8731,0,0,0,1.2406,1.9454l-.62-.245-1.2858-.5076c-.4275-.1732-.8507-.3623-1.276-.5423l-2.55-1.0939c-.5827-.2438-1.1574-.514-1.7319-.7842a8.9691,8.9691,0,0,1-.7978-.4169,22.6049,22.6049,0,0,1-.014-7.05c.1837-1.42.43-2.8491.6464-4.33l.0806-.5575.0658-.59q.0672-.5907.1218-1.1846c.0343-.8056.1076-1.6.0919-2.4208a23.0656,23.0656,0,0,0-2.0628-9.8011,25.1814,25.1814,0,0,0-5.8745-7.9271c1.1522,3.0685,2.3976,5.9277,3.1521,8.774a32.7454,32.7454,0,0,1,1.0794,8.5106c.0259.7148-.0344,1.4319-.0525,2.1486-.0689.7265-.095,1.41-.1642,2.1834a36.2005,36.2005,0,0,0-.1086,4.723,18.2556,18.2556,0,0,0,.8733,4.93,12.866,12.866,0,0,0,.8843,2.036c-1.2515-.5938-2.494-1.2132-3.7363-1.8322q-1.1569-.5871-2.3032-1.2013l-.0028-.054c-.0336-.0008-.0669.0006-.1,0-.1546-.0827-.3079-.1687-.4619-.2521a22.9949,22.9949,0,0,1-.02-7.3634c.1677-1.377.42-2.7527.6343-4.1693.1193-.71.2207-1.4129.32-2.1653.1011-.7756.1523-1.5592.1785-2.3444a26.2236,26.2236,0,0,0-1.36-9.4344,22.5574,22.5574,0,0,0-2.0465-4.413,16.7206,16.7206,0,0,0-3.013-3.7446c.4358,1.5365.8536,2.9808,1.1833,4.42.3378,1.434.5961,2.85.8136,4.253a52.83,52.83,0,0,1,.5933,8.3472c-.0129.687-.0527,1.3684-.0994,2.0443-.0519.6987-.1215,1.4422-.1569,2.1819a36.1055,36.1055,0,0,0-.0224,4.5883,19.4522,19.4522,0,0,0,.878,4.7434,13.0919,13.0919,0,0,0,1.1182,2.5019c-2.0258-1.1183-4.03-2.2886-5.9989-3.53-.0666-.1873-.1232-.3758-.1841-.5637a24.9846,24.9846,0,0,1,.0867-7.5065c.1817-1.4313.4483-2.8605.6753-4.33.1257-.7357.2338-1.4674.3389-2.2408.1081-.8.1679-1.6086.2014-2.4194a27.791,27.791,0,0,0-1.2671-9.7668,23.7013,23.7013,0,0,0-2.0256-4.61,17.4007,17.4007,0,0,0-3.0385-3.9536c.4257,1.5973.832,3.1,1.1459,4.5979.3265,1.4915.5627,2.9658.7674,4.4253a58.3281,58.3281,0,0,1,.5045,8.6864c-.02.715-.0651,1.4242-.1181,2.128-.0582.7307-.1312,1.4984-.1716,2.2659a38.6206,38.6206,0,0,0-.05,4.7475,20.8492,20.8492,0,0,0,.8478,4.91,13.54,13.54,0,0,0,1.3429,3.0179q-2.2626-1.4575-4.4655-3.026c-.1594-.4-.3043-.8025-.4385-1.2064a27.4611,27.4611,0,0,1-.2219-7.0192c.2059-2.7214.6132-5.4458.8236-8.3405l.07-1.0985.0354-1.1095c.0171-.7426.022-1.49-.0079-2.2432a25.92,25.92,0,0,0-.5816-4.5632,20.6978,20.6978,0,0,0-1.5137-4.4849,13.9776,13.9776,0,0,0-2.6919-3.9275c.1633,1.5568.3263,2.98.4195,4.3839.0988,1.4.1605,2.7641.2,4.1267.0373,1.3621.0493,2.72.0629,4.0906l.0139,2.063-.0251,2.0778a56.8308,56.8308,0,0,0,.2934,8.7966,21.7059,21.7059,0,0,0,1.09,4.5442,14.05,14.05,0,0,0,1.5392,3.0528c.0456.0926.0833.189.1311.2805-.0424-.031-.0853-.061-.1276-.0921l.0022-.0169-.0348-.0063c-.9456-.6906-1.8852-1.391-2.8111-2.1141-1.0149-.7917-2.0106-1.6125-2.997-2.4464-.1552-.4233-.2937-.8469-.4236-1.2712a27.1931,27.1931,0,0,1-.1992-6.6564c.1969-2.6855.5972-5.3744.801-8.2343l.0679-1.0855.0332-1.0965c.015-.7339.0183-1.4726-.0132-2.2174a25.7229,25.7229,0,0,0-.5908-4.5091,20.3243,20.3243,0,0,0-1.52-4.4255,13.7354,13.7354,0,0,0-2.687-3.8608c.1687,1.5382.3368,2.9434.4351,4.3291.1038,1.3816.17,2.7276.2134,4.072.0385,1.3432.0634,2.6839.0741,4.0349l.0185,2.0354-.0208,2.0507a55.6044,55.6044,0,0,0,.3083,8.6892,21.2339,21.2339,0,0,0,1.0973,4.4876,14.0584,14.0584,0,0,0,1.3523,2.7255c.0092.0184.0164.0377.0256.0561q-3.2948-2.8615-6.3564-6.02a29.8358,29.8358,0,0,1-.5664-6.4495c.0256-2.6006.2652-5.19.4434-7.871.0517-.6765.0838-1.3609.11-2.0509.0275-.6917.0484-1.3888.0415-2.0942a25.5859,25.5859,0,0,0-.3954-4.3215,18.3072,18.3072,0,0,0-1.3179-4.3315,11.6969,11.6969,0,0,0-2.5915-3.7523c.1831,1.4843.3175,2.8227.3673,4.14.0546,1.3133.0561,2.5911.0376,3.877l-.0923,3.8883-.033,1.9876c-.0164.6681-.0324,1.3406-.034,2.02a39.6853,39.6853,0,0,0,.6589,8.5033,20.8982,20.8982,0,0,0,1.34,4.2649l.0085.0176c-1.2463-1.3615-2.4674-2.75-3.6439-4.1824q-.1955-.3981-.3706-.8a18.2181,18.2181,0,0,1-.5448-5.3886c.0671-2.1675.3657-4.346.4706-6.7139l.0294-.9031L35.08,191.66c-.0114-.6116-.0354-1.2272-.0933-1.8476a18.263,18.263,0,0,0-.7412-3.7329,12.8114,12.8114,0,0,0-4.1852-6.4313c.24,1.2681.48,2.4106.6511,3.5337.1761,1.1191.3114,2.201.4178,3.28.1045,1.0784.1779,2.1523.2444,3.2378l.0882,1.6376.043,1.6554a39.01,39.01,0,0,0,.53,7.1593,15.59,15.59,0,0,0,.9407,3.0612c-.4664-.5969-.9349-1.1912-1.3939-1.7951l-.6735-.8989.04-.0435c-.1944-.223-.38-.4537-.5579-.6891a14.8116,14.8116,0,0,1-.8147-2.0794,16.8377,16.8377,0,0,1-.5841-2.88c-.2369-1.9315-.2284-3.9117-.4365-6.0743-.05-.5483-.1247-1.0992-.2175-1.6531s-.1971-1.1108-.338-1.666a15.795,15.795,0,0,0-1.2159-3.2672,10.931,10.931,0,0,0-4.7133-4.98c.4013,1.1072.7914,2.0924,1.1148,3.0677.3276.9707.61,1.9093.8611,2.8475.2467.9385.47,1.875.6715,2.827.1016.4758.2045.9546.2971,1.4383l.2521,1.4657c.1664,1.0485.3286,2.1561.56,3.2887-.0621-.1017-.1194-.2071-.1825-.3079a55.1993,55.1993,0,0,0-4.2793-5.96,71.9764,71.9764,0,0,0-4.8773-5.4611,42.8029,42.8029,0,0,0-5.6082-4.8519c.2389.6257.4964,1.2357.768,1.8341l0,0,.0009.0018c.1771.3906.3619.775.5506,1.1558q.0506.1028.1018.2054c.3793.7555.7775,1.4949,1.1889,2.2238q.0708.1261.1427.252.3014.5288.6087,1.0525h0q.4725.7965.9671,1.5755c.9879,1.5582,2.0357,3.0665,3.1248,4.54q1.6233,2.22,3.4457,4.2727.61.683,1.2445,1.3446.632.6643,1.2973,1.3t1.3616,1.2463q.3027.263.6117.52c.1724.1441.3482.2852.5244.426.0267.0212.0529.043.08.0641.1976.1569.3995.31.6036.4618l.0137.01q.3151.2335.6425.4565l.028.0388c-.2372-.1185-.4772-.2287-.7195-.3246-.0963-.04-.193-.0744-.29-.11-.0189-.0125-.0385-.0228-.0574-.0349-.1045-.0676-.2112-.13-.3179-.1935-.1193-.0708-.2384-.14-.36-.2062-.1043-.0569-.2086-.1119-.3143-.165-.14-.0706-.2813-.137-.4232-.2014-.0867-.0394-.1725-.08-.26-.1176-.2316-.0988-.4645-.1922-.698-.2762a21.619,21.619,0,0,0-4.5988-.9918c-.4912-.0622-.9733-.1176-1.4427-.1754l-1.3816-.19c-.4564-.0728-.9093-.1571-1.3586-.24s-.8961-.17-1.3413-.2641-.8891-.1942-1.3338-.301c-.4446-.1086-.89-.2258-1.3391-.3531s-.9034-.2643-1.365-.4128c-.9282-.2931-1.8686-.6568-2.9235-1.0254a9.0725,9.0725,0,0,0,.9165,1.4961,11.52,11.52,0,0,0,3.986,3.27,13.546,13.546,0,0,0,3.1155,1.1226c.5257.12,1.0511.203,1.5732.2713s1.04.119,1.5548.143c1.0148.0528,1.9843.05,2.9268.0531s1.8587.0112,2.7663.0856a14.5308,14.5308,0,0,1,2.0372.2969q.34.0756.6828.1716.34.0964.6839.2172c.22.0777.4418.1637.6642.2564l.0244.0094q.693.29,1.4045.6736l.0043.0056q1.2955,1.76,2.63,3.4941l-.0252-.0132a9.9328,9.9328,0,0,0-.8944-.4654,11.1487,11.1487,0,0,0-1.7383-.6256c-.3695-.1005-.74-.1779-1.1109-.2457-.2193-.04-.4393-.0806-.6576-.111a19.6834,19.6834,0,0,0-2.6027-.1647c-1.4169-.0024-2.7829.1158-4.0864.2124l-1.54.0958-1.527.0463c-.5068.0108-1.0107.02-1.5141.0238s-1.0066.0024-1.5115-.0074-1.0115-.0287-1.5232-.0562-1.0292-.0631-1.556-.1093c-1.0571-.087-2.1377-.2459-3.3352-.3936a9.6911,9.6911,0,0,0,.6406.7354,10.9066,10.9066,0,0,0,2.5865,1.9545,13.3482,13.3482,0,0,0,3.1,1.2353,14.87,14.87,0,0,0,2.9723.4487c.1855.0094.3715.0214.5556.024.29.0042.5787,0,.8657-.011s.5725-.0276.8566-.0477l.8474-.0724.8353-.1085c2.1885-.3154,4.1843-.8218,6.19-1.0794.3324-.0445.6656-.0777,1-.1048q.1246-.0105.25-.0185a14.8118,14.8118,0,0,1,2.0618.0021c.0833.0061.1665.0129.25.02.348.0318.6988.0733,1.056.1347.0519.0243.1049.0452.1561.0713.1553.0783.3095.16.466.2343l.0048.0022a1.3805,1.3805,0,0,1,.1747.0962c.0562.0355.1118.0725.1686.1058.104.1305.2048.2634.3089.3931q.9833,1.232,2.0063,2.429l.0459.0546q1.03,1.2086,2.0956,2.3846c-.0328-.0166-.0673-.0286-.1-.045-.3906-.1965-.7865-.38-1.19-.5381l-.0009,0a15.6232,15.6232,0,0,0-2.0269-.6415,19.6987,19.6987,0,0,0-2.0517-.3849c-.6847-.09-1.3649-.1466-2.0394-.1764q-.5059-.0222-1.0076-.0253a39.8208,39.8208,0,0,0-4.8907.31c-.6292.067-1.2508.1483-1.8678.23l-1.8375.2255L17.9,211c-.5943.0717-1.1875.1376-1.7848.194s-1.1983.1034-1.809.1372c-.6124.0364-1.2319.0508-1.8721.049s-1.3015-.0191-1.9974-.046a10.7821,10.7821,0,0,0,3.7229,2.4136q.5086.2059,1.0253.3668a15.8434,15.8434,0,0,0,3.112.6287,19.4562,19.4562,0,0,0,2.0459.1041c.674-.0007,1.3394-.0343,1.9939-.0945s1.2975-.1492,1.9354-.2446,1.2671-.194,1.8888-.314c2.466-.4474,4.8409-.9514,7.2468-1.2275.4376-.0508.8756-.0906,1.3155-.123.07-.005.14-.0105.2095-.0151a22.77,22.77,0,0,1,4.3745.11l.0006,0c.2416.0964.4825.1947.72.3039q2.5586,2.7164,5.3011,5.2275l-.012-.002a12.2885,12.2885,0,0,0-2.13-.7161q-.5342-.13-1.071-.2164a17.0092,17.0092,0,0,0-2.1384-.2027q-.5315-.018-1.0569-.01c-.7015.0131-1.393.0573-2.0746.1244q-.5112.05-1.015.1163c-1.68.2191-3.3.5536-4.8693.87l-1.8627.3621-1.8556.3173c-1.2317.2125-2.4558.4078-3.6844.59-.6157.0879-1.2321.17-1.8545.2448s-1.25.1425-1.8868.2014c-.6388.0625-1.2847.107-1.95.1453s-1.3486.07-2.0624.1073a10.2908,10.2908,0,0,0,.9212.7107,11.4443,11.4443,0,0,0,.9767.6,14.5717,14.5717,0,0,0,2.0609.9208,16.0961,16.0961,0,0,0,3.2072.775q.5369.0745,1.0721.1159a20.2882,20.2882,0,0,0,4.2019-.1156c.3414-.0449.68-.0987,1.0166-.1584s.6707-.1262,1.0034-.1948l.4963-.1088.4963-.1083.9767-.2524c1.9268-.5188,3.7476-1.14,5.5549-1.6943.6024-.1851,1.2033-.3624,1.8063-.5263l.0072-.002c.267-.0722.53-.14.7943-.2062.0846-.0212.17-.0413.2544-.0618q.2919-.07.5851-.1344c.09-.02.18-.04.27-.0591.2585-.0537.5176-.1046.7787-.15.0477-.0084.0955-.0157.1432-.0238q.3567-.06.7179-.1068c.099-.0131.1986-.0241.298-.0356q.2858-.033.5753-.0567c.1008-.0085.2016-.0175.3029-.0241.274-.0181.55-.0313.83-.0359.1382.0343.2744.0761.4112.1149.1781.05.3573.0965.5335.1546.3291.1095.655.2311.9755.37l.0147-.0557q.919.8072,1.8539,1.5941t1.888,1.5454c.29.2283.5846.4476.8771.6714-.1145-.0272-.23-.0458-.345-.0694-.0984-.02-.1962-.0415-.295-.0591-.3216-.0578-.6437-.1067-.9656-.1387a16.6123,16.6123,0,0,0-4.27.1627,32.1146,32.1146,0,0,0-4.9565,1.2616c-.6326.208-1.2553.4247-1.87.6419q-.4608.1629-.9154.3249l-1.8016.6259-1.8.5805c-1.1968.3807-2.3825.76-3.579,1.1137-1.1975.3517-2.4027.68-3.65.98-1.2491.3069-2.5351.5455-3.9373.8228h0a10.8628,10.8628,0,0,0,2.5688,1.24,14.85,14.85,0,0,0,1.6268.4619,15.2252,15.2252,0,0,0,2.1818.2989,17.1054,17.1054,0,0,0,2.1586.0016q.5347-.0318,1.0613-.0936t1.0449-.1509a20.3767,20.3767,0,0,0,2.0339-.4595c.6647-.1857,1.3135-.4066,1.955-.6387l.9557-.3572.9358-.3913c2.4591-1.0566,4.7131-2.2715,7.0228-3.2729q.5577-.2418,1.12-.463c.07-.0277.1409-.0546.2113-.0819a20.3889,20.3889,0,0,1,3.746-1.0861c.1279.0112.2551.0288.3827.0439.1688.02.338.0361.5058.0627.3113.05.621.11.9284.185q1.9575,1.4344,3.9635,2.78l0,0c-.2449-.02-.49-.0271-.7349-.0284-.0586,0-.1167,0-.1753,0-.2431.0032-.4857.0117-.7262.0317h-.0026a12.9448,12.9448,0,0,0-3.1614.6905c-.3361.1157-.6665.2418-.9909.3758q-.4854.206-.9558.4312c-.6271.3006-1.2348.6246-1.8237.9651q-.4416.2554-.8694.5218c-.2873.17-.5717.35-.8511.53s-.5535.359-.82.5285c-.5179.3248-1.043.6451-1.5845.94q-.8165.4371-1.6574.8295a39.1742,39.1742,0,0,1-5.238,1.9878c-1.2088.3557-2.4454.67-3.73.9162-.6421.1212-1.295.2365-1.963.3339l-2.0539.2809a13.3735,13.3735,0,0,0,3.1363,1.2563q.5387.1434,1.0834.249.544.1041,1.0917.1724a16.7679,16.7679,0,0,0,2.1876.1306q.5451-.003,1.0857-.042a18.8477,18.8477,0,0,0,8.1017-2.4969,18.4922,18.4922,0,0,0,1.7983-1.1468c.56-.4118,1.0764-.8027,1.5927-1.2161.5189-.4006,1.0259-.8057,1.5314-1.2028s1.0093-.7855,1.522-1.1531c.22-.1619.4416-.3192.664-.4743.0838-.0581.1679-.1153.2523-.1724.1388-.0946.2792-.1868.42-.278.106-.0686.2116-.1379.3185-.2047.1287-.0805.26-.1569.3906-.2345q.3252-.1918.6587-.3708c.077-.0414.154-.0827.2318-.123q.2436-.1253.4926-.2426c.0547-.026.1106-.05.1657-.0756.3776-.1718.7641-.3315,1.165-.4734l0,0c.2237-.0113.4476-.0169.6717-.0152.2319.0032.4639.0107.6957.03q1.4644.9368,2.9513,1.8259c.5667.34,1.14.6639,1.7113.9936.4031.2326.8026.4733,1.2076.7013-.2441-.003-.4874.0059-.73.021-.0524.0032-.1043.0065-.1565.01-.2431.0193-.4855.0439-.725.08a13.2019,13.2019,0,0,0-3.1462.903c-.3322.1387-.6583.2874-.9783.4434a27.4344,27.4344,0,0,0-3.5813,2.1717c-.5627.3817-1.1124.7994-1.6348,1.1783-.2534.1816-.5092.3623-.7678.5393s-.52.35-.7861.5175a39.2147,39.2147,0,0,1-6.8124,3.3183c-1.2.4406-2.4294.8463-3.71,1.1813-1.2811.3453-2.6076.6053-4.0147.89q.5209.2541,1.057.4542a13.9357,13.9357,0,0,0,2.1789.6159c.368.0733.7372.1326,1.1069.18a16.8309,16.8309,0,0,0,4.4132-.0268,18.2343,18.2343,0,0,0,3.18-.7231,19.9186,19.9186,0,0,0,4.8429-2.34,19.2533,19.2533,0,0,0,1.7518-1.276c.271-.2258.5325-.446.7885-.6665s.5067-.4409.7568-.6666q.3781-.3293.7484-.66c.742-.66,1.4687-1.3165,2.218-1.9256.22-.1834.442-.3622.665-.5389.0732-.0578.147-.1146.2207-.1715q.2328-.18.4688-.3545c.0863-.0634.1722-.1269.259-.1893.171-.1226.3444-.2412.519-.3582.0829-.0551.1648-.1115.2485-.1655q.31-.2.6289-.3876c.1057-.062.2137-.121.3212-.1808q.2143-.1191.4333-.2322c.1173-.06.2349-.12.3543-.1774.16-.0769.3232-.1493.4875-.2208.1047-.0456.2071-.0941.3139-.1372h0c.3238-.032.6487-.0542.9754-.0552q1.3471.7276,2.7057,1.4237l2.5257,1.2614c.1144.0576.23.11.3462.1638l0,0a9.397,9.397,0,0,0-1.1125.24,11.0242,11.0242,0,0,0-1.08.3626,13.1929,13.1929,0,0,0-2.0141,1.008q-.4782.2907-.93.6108a27.985,27.985,0,0,0-3.3166,2.791c-.3854.3795-.7486.7072-1.1085,1.0491-.12.114-.24.23-.36.3491-.2513.2128-.4965.4354-.7447.6523s-.4993.4294-.7621.62q-.762.6191-1.561,1.1643t-1.6345,1.02q-.4154.2435-.8424.4655a23.9262,23.9262,0,0,1-2.6645,1.1748,68.81,68.81,0,0,1-8.0708,2.0163,19.6683,19.6683,0,0,0,9.0147,1.0383,15.8438,15.8438,0,0,0,3.3129-.8333,16.9375,16.9375,0,0,0,4.8727-2.797c.2981-.2264.5785-.47.8543-.7181s.5463-.5017.8246-.747q.3942-.3889.778-.79l.3847-.3978.353-.3934c.9359-1.0481,1.8181-2.094,2.7294-3.0757.2-.2153.4022-.4255.6057-.634.0565-.0579.1133-.1151.17-.1723q.2651-.267.5359-.5249c.0374-.0353.074-.0718.1113-.107.2083-.1951.4208-.3844.6367-.57.0618-.053.1244-.1047.1868-.1567q.2616-.2188.5332-.4268c.06-.0455.1182-.0924.1785-.1372q.3411-.2536.7-.4887c.0637-.0418.13-.0809.1941-.1216.1138-.0715.2326-.1383.3492-.2069.1865-.0434.3742-.0828.5627-.116.2008-.0344.4021-.065.6049-.0871l.0719.0326c.088.04.2186.1.3391.1554l.3029.1394c.5839.27,1.1671.54,1.7584.7832l2.5784,1.0872c.43.1792.8581.3671,1.29.5389l.982.3809c-.0228.0015-.045.0062-.0678.0081-.3688.0269-.736.067-1.0982.1286a13.4791,13.4791,0,0,0-2.7206.786q-.4359.1755-.8578.376a20.351,20.351,0,0,0-3.1676,1.8956c-.2468.1776-.4919.3574-.7331.54s-.4782.3691-.7091.56c-.2312.1881-.47.3863-.7047.59s-.4666.413-.6838.6226c-.9032.8376-1.7133,1.6851-2.5052,2.493a29.7694,29.7694,0,0,1-2.3974,2.2535A21.1121,21.1121,0,0,1,64.262,253.19c-.2443.1457-.4937.2858-.7476.4235-.5077.2755-1.0331.5417-1.57.8237-.2688.1409-.54.2859-.8141.4382a11.0255,11.0255,0,0,0,5.7506-.1128,11.1057,11.1057,0,0,0,1.8046-.6927c.2793-.1379.5523-.2871.82-.444l.0278-.0151c.2981-.1758.5868-.3642.8682-.56a15.2086,15.2086,0,0,0,1.4191-1.1152c.4673-.4045.9052-.8232,1.328-1.2406s.83-.8338,1.2368-1.234l1.2265-1.1789,1.26-1.1838c.8382-.7794,1.6707-1.5447,2.54-2.2566.2756-.2293.5553-.4517.8379-.67.058-.0448.1167-.089.175-.1334.2791-.2116.561-.42.85-.62l.0092-.0069A21.9437,21.9437,0,0,1,83.31,242.16l.001,0,.0089-.0013c.2631-.054.5235-.0994.785-.1368.23-.0324.4615-.0565.6935-.0761.037-.0031.0736-.0091.1108-.0119l.6084.2359c1.7376.6453,3.4872,1.2357,5.23,1.8561l.1409-.6858h0l.1174-.5707c-1.7252-.6382-3.4556-1.2546-5.1756-1.91l-.685-.27-.0045-.0265c-.0149.002-.0292.0057-.044.0073l-.2735-.1079a31.6443,31.6443,0,0,1-1.1067-6.4971c-.098-1.2355-.1379-2.4731-.1723-3.7251L83.5,228.3494l-.0253-1.8567c-.0044-1.2432.0308-2.5313-.0464-3.8887a19.8157,19.8157,0,0,0-.6369-4.1765,16.12,16.12,0,0,0-1.6962-3.9875A14.8332,14.8332,0,0,0,78.428,211.1689Z" style="fill:#003547"/><path d="M108.5721,221.99c5.1184,11.17,7.9947,21.7393,4.2257,26.4542a6.1354,6.1354,0,0,1-.7292.7663c-2.9033,2.5578-8.6126,2.6151-18.2521-1.1922-25.6546-10.1339-26.8722-27.6227-32.0609-44.7012-5.1152-16.8648-22.9831-14.0152-23.4387-13.9389C79.95,174.8762,99.8882,203.0539,108.5721,221.99Z" style="fill:#00925b"/><path d="M112.7978,248.4442a6.1354,6.1354,0,0,1-.7292.7663c-4.8192-2.9026-14.0463-9.0576-18.397-15.9672a102.5827,102.5827,0,0,1-5.6061-10.8068c-3.4516-7.3373-7.0283-14.9239-13.2682-20.7423l.6957-.75c6.3827,5.9572,9.9971,13.6327,13.4938,21.0592a99.9476,99.9476,0,0,0,5.5481,10.6952C98.7773,239.4387,108.1,245.6176,112.7978,248.4442Z" style="fill:#00723e"/><path d="M104.1144,226.5539c-.3018.7432-.4971,1.1641-.5186,1.2112-.0786-.41-.1554-.8174-.2332-1.2108-3.4226-17.5356-7.9991-19.3677-21.7215-34.7073-14.0335-15.6887-5.9632-30.3042-5.9632-30.3042C122.6928,175.1267,107.3094,218.7149,104.1144,226.5539Z" style="fill:#00b6bd"/><path d="M104.1144,226.5539c-.3018.7432-.4971,1.1641-.5186,1.2112-.0786-.41-.1554-.8174-.2332-1.2108,1.5228-15.16-7.6226-32.9486-10.4963-36.14a33.4863,33.4863,0,0,1-5.4975-9.5639c-.1167-.2838-.2257-.5546-.2613-.6176l.663-.3745c.0583.1028.1342.2917.3035.7077a32.7054,32.7054,0,0,0,5.36,9.3355C97.0755,193.9493,105.5123,211.8234,104.1144,226.5539Z" style="fill:#007c7c"/><path d="M459.3309,272.7536c-5.1184,11.17-7.9947,21.7393-4.2257,26.4542a6.15,6.15,0,0,0,.7292.7663c2.9034,2.5578,8.6127,2.6151,18.2521-1.1922,25.6546-10.1339,26.8722-27.6227,32.0609-44.7012,5.1152-16.8648,22.9831-14.0152,23.4387-13.9389C487.9528,225.64,468.0148,253.8175,459.3309,272.7536Z" style="fill:#47cec2"/><path d="M455.1052,299.2078a6.15,6.15,0,0,0,.7292.7663c4.8192-2.9026,14.0464-9.0576,18.3971-15.9672A102.6016,102.6016,0,0,0,479.8376,273.2c3.4516-7.3373,7.0282-14.9239,13.2681-20.7423l-.6957-.75c-6.3827,5.9572-9.9971,13.6327-13.4938,21.0592a99.9293,99.9293,0,0,1-5.5481,10.6952C469.1257,290.2023,459.8028,296.3812,455.1052,299.2078Z" style="fill:#007c7c"/><path d="M463.7886,277.3175c.3018.7432.4972,1.1641.5186,1.2111.0787-.41.1554-.8174.2333-1.2107,3.4225-17.5357,7.999-19.3677,21.7215-34.7073,14.0335-15.6887,5.9631-30.3043,5.9631-30.3043C445.21,225.89,460.5936,269.4785,463.7886,277.3175Z" style="fill:#299a86"/><path d="M463.7886,277.3175c.3018.7432.4972,1.1641.5186,1.2111.0787-.41.1554-.8174.2333-1.2107-1.5228-15.16,7.6225-32.9486,10.4962-36.14a33.4863,33.4863,0,0,0,5.4975-9.5639c.1167-.2839.2258-.5546.2613-.6176l-.663-.3746c-.0582.1029-.1342.2918-.3034.7078a32.7062,32.7062,0,0,1-5.36,9.3355C470.8276,244.7129,462.3908,262.587,463.7886,277.3175Z" style="fill:#00723e"/><path d="M255.5935,34.9514l-23.1258,9.666a3.1359,3.1359,0,0,1-4.1029-1.6842L214.9859,10.9243a3.1362,3.1362,0,0,1,1.684-4.1031l14.6663-6.13L247.58,7.6471l9.6974,23.2013A3.1361,3.1361,0,0,1,255.5935,34.9514Z" style="fill:#4ec5ea"/><path d="M231.3362.6909,235.1017,9.7a2.9168,2.9168,0,0,0,3.8157,1.5667L247.58,7.6471Z" style="fill:#f5f5f5"/><path d="M235.55,10.4408a3.2431,3.2431,0,0,0,3.5869,1.9112,2.998,2.998,0,0,0,.3117-.0549c1.2154-.2705,9.2145-2.0581,9.1431-2.2291L247.58,7.6471l-8.6622,3.6206S236.7244,12.0978,235.55,10.4408Z" style="fill:#e1e1e1"/><path d="M233.0088,10.1426a37.2,37.2,0,0,1-5.2617,2.4454,37.2009,37.2009,0,0,1-5.4373,2.0265,37.1769,37.1769,0,0,1,5.2622-2.4457A37.2018,37.2018,0,0,1,233.0088,10.1426Z" style="fill:#fafafa"/><path d="M242.0475,12.348c.0483.1156-3.8545,1.8573-8.7164,3.8893s-8.844,3.5863-8.8923,3.4706,3.8537-1.8571,8.7172-3.89C238.0177,13.786,241.9991,12.2321,242.0475,12.348Z" style="fill:#fafafa"/><path d="M245.4111,15.9383c.0484.1159-4.21,2.0058-9.5092,4.2208-5.3015,2.216-9.637,3.9179-9.6854,3.8021s4.2087-2.0053,9.51-4.2212C241.0262,17.5248,245.3627,15.8227,245.4111,15.9383Z" style="fill:#fafafa"/><path d="M247.0883,19.9511c.0484.1159-4.21,2.0059-9.5091,4.2209-5.3016,2.2159-9.6371,3.9177-9.6854,3.8019s4.2086-2.0052,9.51-4.2211C242.7035,21.5378,247.04,19.8355,247.0883,19.9511Z" style="fill:#fafafa"/><path d="M248.7656,23.964c.0483.1158-4.21,2.0058-9.5093,4.2209-5.3015,2.2159-9.6369,3.9177-9.6853,3.8019s4.2087-2.0053,9.51-4.2211C244.3807,25.5506,248.7172,23.8483,248.7656,23.964Z" style="fill:#fafafa"/><path d="M250.4429,27.9769c.0483.1157-4.21,2.0057-9.5093,4.2207-5.3015,2.216-9.637,3.9178-9.6854,3.8021s4.2086-2.0054,9.51-4.2212C246.058,29.5634,250.3945,27.8611,250.4429,27.9769Z" style="fill:#fafafa"/><path d="M113.9817,114.1537h113.465a6.0482,6.0482,0,0,1,6.0482,6.0482V286.3767a6.0481,6.0481,0,0,1-6.0481,6.0481H113.9816a6.0481,6.0481,0,0,1-6.0481-6.0481V120.202a6.0482,6.0482,0,0,1,6.0482-6.0482Z" transform="translate(341.4283 406.5786) rotate(180)" style="fill:#fef5f3"/><rect x="126.6695" y="201.8357" width="88.0893" height="8.4549" transform="translate(341.4282 412.1263) rotate(180)" style="fill:#fadad1"/><rect x="126.6695" y="213.4824" width="88.0893" height="3.3281" transform="translate(341.4282 430.2928) rotate(180)" style="fill:#fadad1"/><rect x="126.6695" y="225.0295" width="88.0893" height="1.183" transform="translate(341.4282 451.242) rotate(180)" style="fill:#fadad1"/><rect x="126.6695" y="229.4983" width="88.0893" height="1.183" transform="translate(341.4282 460.1795) rotate(180)" style="fill:#fadad1"/><rect x="126.6695" y="233.967" width="88.0893" height="1.1833" transform="translate(341.4282 469.1172) rotate(180)" style="fill:#fadad1"/><rect x="126.6695" y="238.4359" width="88.0893" height="1.1831" transform="translate(341.4282 478.0548) rotate(180)" style="fill:#fadad1"/><rect x="126.6695" y="242.9046" width="88.0893" height="1.1832" transform="translate(341.4282 486.9925) rotate(180)" style="fill:#fadad1"/><rect x="171.5412" y="247.3735" width="43.2175" height="1.1831" transform="translate(386.2999 495.9302) rotate(180)" style="fill:#fadad1"/><path d="M208.7041,262.363l-.92,2.8326a1.6616,1.6616,0,0,1-1.58,1.1482H203.225a1.6615,1.6615,0,0,0-.9766,3.0056l2.41,1.7507a1.6615,1.6615,0,0,1,.6036,1.8576l-.9205,2.8327a1.6615,1.6615,0,0,0,2.5568,1.8576l2.41-1.7507a1.6618,1.6618,0,0,1,1.9532,0l2.41,1.7507a1.6615,1.6615,0,0,0,2.5568-1.8576l-.92-2.8327a1.6613,1.6613,0,0,1,.6035-1.8576l2.41-1.7507a1.6614,1.6614,0,0,0-.9766-3.0056h-2.9784a1.6618,1.6618,0,0,1-1.58-1.1482l-.92-2.8326A1.6615,1.6615,0,0,0,208.7041,262.363Z" style="fill:#fadad1"/><path d="M188.9191,262.363l-.92,2.8326a1.6615,1.6615,0,0,1-1.58,1.1482H183.44a1.6615,1.6615,0,0,0-.9768,3.0056l2.41,1.7507a1.6615,1.6615,0,0,1,.6036,1.8576l-.92,2.8327a1.6615,1.6615,0,0,0,2.5568,1.8576l2.41-1.7507a1.6618,1.6618,0,0,1,1.9532,0l2.41,1.7507a1.6614,1.6614,0,0,0,2.5567-1.8576l-.92-2.8327a1.6615,1.6615,0,0,1,.6036-1.8576l2.41-1.7507a1.6614,1.6614,0,0,0-.9766-3.0056H194.58a1.6617,1.6617,0,0,1-1.58-1.1482l-.92-2.8326A1.6615,1.6615,0,0,0,188.9191,262.363Z" style="fill:#fadad1"/><path d="M169.1339,262.363l-.92,2.8326a1.6617,1.6617,0,0,1-1.58,1.1482h-2.9785a1.6614,1.6614,0,0,0-.9765,3.0056l2.41,1.7507a1.6618,1.6618,0,0,1,.6035,1.8576l-.92,2.8327a1.6615,1.6615,0,0,0,2.5569,1.8576l2.41-1.7507a1.6619,1.6619,0,0,1,1.9533,0l2.41,1.7507a1.6615,1.6615,0,0,0,2.5569-1.8576l-.9205-2.8327A1.6615,1.6615,0,0,1,176.34,271.1l2.41-1.7507a1.6614,1.6614,0,0,0-.9764-3.0056h-2.9787a1.6614,1.6614,0,0,1-1.58-1.1482l-.92-2.8326A1.6616,1.6616,0,0,0,169.1339,262.363Z" style="fill:#fadad1"/><path d="M149.3489,262.363l-.92,2.8326a1.6617,1.6617,0,0,1-1.58,1.1482H143.87a1.6615,1.6615,0,0,0-.9767,3.0056l2.41,1.7507a1.6615,1.6615,0,0,1,.6035,1.8576l-.92,2.8327a1.6615,1.6615,0,0,0,2.5568,1.8576l2.41-1.7507a1.6618,1.6618,0,0,1,1.9532,0l2.41,1.7507a1.6615,1.6615,0,0,0,2.5568-1.8576l-.92-2.8327a1.6615,1.6615,0,0,1,.6036-1.8576l2.41-1.7507a1.6615,1.6615,0,0,0-.9767-3.0056H155.01a1.6614,1.6614,0,0,1-1.58-1.1482l-.9205-2.8326A1.6615,1.6615,0,0,0,149.3489,262.363Z" style="fill:#fadad1"/><path d="M129.5638,262.363l-.92,2.8326a1.6617,1.6617,0,0,1-1.58,1.1482h-2.9784a1.6614,1.6614,0,0,0-.9766,3.0056l2.41,1.7507a1.6617,1.6617,0,0,1,.6036,1.8576l-.92,2.8327a1.6615,1.6615,0,0,0,2.5568,1.8576l2.41-1.7507a1.6618,1.6618,0,0,1,1.9532,0l2.41,1.7507a1.6615,1.6615,0,0,0,2.5568-1.8576l-.9205-2.8327A1.6617,1.6617,0,0,1,136.77,271.1l2.41-1.7507a1.6615,1.6615,0,0,0-.9766-3.0056h-2.9785a1.6617,1.6617,0,0,1-1.58-1.1482l-.92-2.8326A1.6615,1.6615,0,0,0,129.5638,262.363Z" style="fill:#fadad1"/><rect x="127.1434" y="147.1899" width="87.2117" height="46.4374" style="fill:#f4b079"/><polygon points="147.13 189.229 163.972 158.908 176.292 175.716 182.468 168.96 195.501 189.097 147.13 189.229" style="fill:#fef5f3"/><path d="M171.9808,154.5412a4.3678,4.3678,0,0,1,4.3518-4.3572,4.3226,4.3226,0,0,1,4.3393,4.3333,4.3692,4.3692,0,0,1-4.3532,4.3578A4.3232,4.3232,0,0,1,171.9808,154.5412Z" style="fill:#fef5f3"/><path d="M226.6128,114.1537H114.8157a6.8822,6.8822,0,0,0-6.8823,6.8822v9.1647H233.4948v-9.1647A6.8821,6.8821,0,0,0,226.6128,114.1537Z" style="fill:#f4b079"/><path d="M172.2063,113.9082h54.89a7.3237,7.3237,0,0,1,7.3237,7.3236V284.5991a7.8257,7.8257,0,0,1-7.8257,7.8256H172.2063Z" style="fill:#99a9c0;opacity:0.4;mix-blend-mode:multiply"/><path d="M276.6465,113.9082H390.1114a6.0482,6.0482,0,0,1,6.0482,6.0482V286.1311a6.0481,6.0481,0,0,1-6.0481,6.0481H276.6464a6.0481,6.0481,0,0,1-6.0481-6.0481V119.9564A6.0482,6.0482,0,0,1,276.6465,113.9082Z" transform="translate(666.7579 406.0875) rotate(180)" style="fill:#fef5f3"/><rect x="289.3343" y="201.5901" width="88.0893" height="8.4549" transform="translate(666.7579 411.6352) rotate(180)" style="fill:#fadad1"/><rect x="289.3343" y="213.2367" width="88.0893" height="3.3281" transform="translate(666.7579 429.8015) rotate(180)" style="fill:#fadad1"/><rect x="289.3343" y="224.7839" width="88.0893" height="1.183" transform="translate(666.7579 450.7509) rotate(180)" style="fill:#fadad1"/><rect x="289.3343" y="229.2526" width="88.0893" height="1.1831" transform="translate(666.7579 459.6883) rotate(180)" style="fill:#fadad1"/><rect x="289.3343" y="233.7214" width="88.0893" height="1.1833" transform="translate(666.7579 468.6261) rotate(180)" style="fill:#fadad1"/><rect x="289.3343" y="238.1903" width="88.0893" height="1.1831" transform="translate(666.7579 477.5637) rotate(180)" style="fill:#fadad1"/><rect x="289.3343" y="242.659" width="88.0893" height="1.1833" transform="translate(666.7579 486.5013) rotate(180)" style="fill:#fadad1"/><rect x="334.206" y="247.128" width="43.2176" height="1.183" transform="translate(711.6296 495.4389) rotate(180)" style="fill:#fadad1"/><path d="M371.3689,262.1174l-.92,2.8327a1.6618,1.6618,0,0,1-1.58,1.1481H365.89a1.6614,1.6614,0,0,0-.9766,3.0056l2.4095,1.7508a1.6612,1.6612,0,0,1,.6036,1.8575l-.92,2.8327a1.6614,1.6614,0,0,0,2.5567,1.8576l2.41-1.7507a1.6618,1.6618,0,0,1,1.9532,0l2.41,1.7507a1.6615,1.6615,0,0,0,2.5568-1.8576l-.9205-2.8327a1.6613,1.6613,0,0,1,.6036-1.8575l2.41-1.7508a1.6615,1.6615,0,0,0-.9767-3.0056H377.03a1.6618,1.6618,0,0,1-1.58-1.1481l-.92-2.8327A1.6615,1.6615,0,0,0,371.3689,262.1174Z" style="fill:#fadad1"/><path d="M351.5838,262.1174l-.92,2.8327a1.6616,1.6616,0,0,1-1.58,1.1481h-2.9784a1.6614,1.6614,0,0,0-.9767,3.0056l2.41,1.7508a1.6616,1.6616,0,0,1,.6035,1.8575l-.92,2.8327a1.6614,1.6614,0,0,0,2.5567,1.8576l2.41-1.7507a1.6618,1.6618,0,0,1,1.9532,0l2.41,1.7507a1.6615,1.6615,0,0,0,2.5568-1.8576l-.92-2.8327a1.6612,1.6612,0,0,1,.6036-1.8575l2.41-1.7508a1.6615,1.6615,0,0,0-.9766-3.0056h-2.9784a1.6617,1.6617,0,0,1-1.58-1.1481l-.92-2.8327A1.6615,1.6615,0,0,0,351.5838,262.1174Z" style="fill:#fadad1"/><path d="M331.7988,262.1174l-.92,2.8327a1.6617,1.6617,0,0,1-1.58,1.1481H326.32a1.6615,1.6615,0,0,0-.9766,3.0056l2.41,1.7508a1.6616,1.6616,0,0,1,.6036,1.8575l-.9205,2.8327a1.6615,1.6615,0,0,0,2.5569,1.8576l2.41-1.7507a1.6621,1.6621,0,0,1,1.9534,0l2.4094,1.7507a1.6615,1.6615,0,0,0,2.5569-1.8576l-.9205-2.8327a1.6616,1.6616,0,0,1,.6036-1.8575l2.41-1.7508a1.6615,1.6615,0,0,0-.9766-3.0056H337.46a1.6615,1.6615,0,0,1-1.58-1.1481l-.92-2.8327A1.6615,1.6615,0,0,0,331.7988,262.1174Z" style="fill:#fadad1"/><path d="M312.0137,262.1174l-.92,2.8327a1.6616,1.6616,0,0,1-1.58,1.1481h-2.9785a1.6615,1.6615,0,0,0-.9766,3.0056l2.41,1.7508a1.6613,1.6613,0,0,1,.6035,1.8575l-.92,2.8327a1.6615,1.6615,0,0,0,2.5568,1.8576l2.41-1.7507a1.6618,1.6618,0,0,1,1.9532,0l2.41,1.7507a1.6615,1.6615,0,0,0,2.5568-1.8576l-.92-2.8327a1.6614,1.6614,0,0,1,.6035-1.8575l2.41-1.7508a1.6614,1.6614,0,0,0-.9766-3.0056h-2.9784a1.6616,1.6616,0,0,1-1.58-1.1481l-.92-2.8327A1.6615,1.6615,0,0,0,312.0137,262.1174Z" style="fill:#fadad1"/><path d="M292.2287,262.1174l-.9205,2.8327a1.6616,1.6616,0,0,1-1.58,1.1481H286.75a1.6615,1.6615,0,0,0-.9766,3.0056l2.41,1.7508a1.6612,1.6612,0,0,1,.6036,1.8575l-.92,2.8327a1.6615,1.6615,0,0,0,2.5568,1.8576l2.41-1.7507a1.6618,1.6618,0,0,1,1.9532,0l2.41,1.7507a1.6614,1.6614,0,0,0,2.5567-1.8576l-.92-2.8327a1.6612,1.6612,0,0,1,.6036-1.8575l2.41-1.7508a1.6615,1.6615,0,0,0-.9767-3.0056H297.89a1.6616,1.6616,0,0,1-1.58-1.1481l-.92-2.8327A1.6615,1.6615,0,0,0,292.2287,262.1174Z" style="fill:#fadad1"/><rect x="289.8082" y="146.9443" width="87.2117" height="46.4373" style="fill:#f9abb3"/><polygon points="309.795 188.983 326.637 158.663 338.956 175.47 345.133 168.714 358.166 188.851 309.795 188.983" style="fill:#fef5f3"/><path d="M334.6455,154.2955a4.3679,4.3679,0,0,1,4.352-4.357,4.3223,4.3223,0,0,1,4.3391,4.3332,4.369,4.369,0,0,1-4.3532,4.3577A4.323,4.323,0,0,1,334.6455,154.2955Z" style="fill:#fef5f3"/><path d="M389.8323,113.9082H276.9256a6.3274,6.3274,0,0,0-6.3274,6.3274v9.7195H396.16v-9.72A6.3272,6.3272,0,0,0,389.8323,113.9082Z" style="fill:#f9abb3"/><path d="M334.3882,113.9082H276.5746a5.9763,5.9763,0,0,0-5.9764,5.9763V284.2663a9.1878,9.1878,0,0,0,9.1879,9.1879h54.6021Z" style="fill:#99a9c0;opacity:0.4;mix-blend-mode:multiply"/><path d="M192.4021,85.4392H313.8815a6.0482,6.0482,0,0,1,6.0482,6.0482V269.0412a6.0481,6.0481,0,0,1-6.0481,6.0481H192.402a6.0481,6.0481,0,0,1-6.0481-6.0481V91.4874A6.0482,6.0482,0,0,1,192.4021,85.4392Z" transform="translate(506.2836 360.5285) rotate(180)" style="fill:#fef5f3"/><rect x="206.2858" y="178.718" width="93.712" height="8.9945" transform="translate(506.2836 366.4304) rotate(180)" style="fill:#fadad1"/><rect x="206.2858" y="191.108" width="93.712" height="3.5405" transform="translate(506.2836 385.7564) rotate(180)" style="fill:#fadad1"/><rect x="206.2858" y="203.3922" width="93.712" height="1.2585" transform="translate(506.2836 408.0429) rotate(180)" style="fill:#fadad1"/><rect x="206.2858" y="208.1461" width="93.712" height="1.2585" transform="translate(506.2836 417.5508) rotate(180)" style="fill:#fadad1"/><rect x="206.2858" y="212.9001" width="93.712" height="1.2588" transform="translate(506.2836 427.059) rotate(180)" style="fill:#fadad1"/><rect x="206.2858" y="217.6542" width="93.712" height="1.2586" transform="translate(506.2836 436.5671) rotate(180)" style="fill:#fadad1"/><rect x="206.2858" y="222.4082" width="93.712" height="1.2588" transform="translate(506.2836 446.0752) rotate(180)" style="fill:#fadad1"/><rect x="254.0216" y="227.1625" width="45.9762" height="1.2585" transform="translate(554.0194 455.5835) rotate(180)" style="fill:#fadad1"/><path d="M293.5567,243.1086l-.9792,3.0136a1.7677,1.7677,0,0,1-1.681,1.2214h-3.1686a1.7675,1.7675,0,0,0-1.039,3.1974l2.5634,1.8624a1.7674,1.7674,0,0,1,.6421,1.9762l-.9791,3.0135a1.7675,1.7675,0,0,0,2.72,1.9762l2.5635-1.8625a1.7677,1.7677,0,0,1,2.0778,0l2.5635,1.8625a1.7675,1.7675,0,0,0,2.72-1.9762l-.979-3.0135a1.7674,1.7674,0,0,1,.6421-1.9762l2.5634-1.8624a1.7675,1.7675,0,0,0-1.039-3.1974h-3.1686a1.7677,1.7677,0,0,1-1.681-1.2214l-.9792-3.0136A1.7675,1.7675,0,0,0,293.5567,243.1086Z" style="fill:#fadad1"/><path d="M272.5087,243.1086l-.9791,3.0136a1.7678,1.7678,0,0,1-1.681,1.2214H266.68a1.7675,1.7675,0,0,0-1.0389,3.1974l2.5634,1.8624a1.7677,1.7677,0,0,1,.6421,1.9762l-.9791,3.0135a1.7675,1.7675,0,0,0,2.72,1.9762l2.5635-1.8625a1.7679,1.7679,0,0,1,2.0779,0l2.5635,1.8625a1.7675,1.7675,0,0,0,2.72-1.9762l-.9791-3.0135a1.7677,1.7677,0,0,1,.6421-1.9762l2.5634-1.8624a1.7675,1.7675,0,0,0-1.0389-3.1974H278.531a1.7679,1.7679,0,0,1-1.6811-1.2214l-.9791-3.0136A1.7676,1.7676,0,0,0,272.5087,243.1086Z" style="fill:#fadad1"/><path d="M251.4607,243.1086l-.9791,3.0136a1.7677,1.7677,0,0,1-1.6811,1.2214H245.632a1.7674,1.7674,0,0,0-1.0389,3.1974l2.5635,1.8624a1.7678,1.7678,0,0,1,.642,1.9762l-.9792,3.0135a1.7676,1.7676,0,0,0,2.72,1.9762l2.5633-1.8625a1.768,1.768,0,0,1,2.078,0l2.5633,1.8625a1.7676,1.7676,0,0,0,2.72-1.9762l-.9792-3.0135a1.7677,1.7677,0,0,1,.6421-1.9762l2.5635-1.8624a1.7675,1.7675,0,0,0-1.0389-3.1974H257.483a1.7677,1.7677,0,0,1-1.681-1.2214l-.9791-3.0136A1.7677,1.7677,0,0,0,251.4607,243.1086Z" style="fill:#fadad1"/><path d="M230.4128,243.1086l-.9791,3.0136a1.7678,1.7678,0,0,1-1.6811,1.2214h-3.1685a1.7675,1.7675,0,0,0-1.0391,3.1974l2.5635,1.8624a1.7676,1.7676,0,0,1,.6421,1.9762l-.9792,3.0135a1.7676,1.7676,0,0,0,2.72,1.9762l2.5634-1.8625a1.7679,1.7679,0,0,1,2.0779,0l2.5634,1.8625a1.7675,1.7675,0,0,0,2.72-1.9762l-.9791-3.0135a1.7676,1.7676,0,0,1,.6421-1.9762l2.5634-1.8624a1.7675,1.7675,0,0,0-1.039-3.1974h-3.1685a1.7676,1.7676,0,0,1-1.681-1.2214l-.9792-3.0136A1.7676,1.7676,0,0,0,230.4128,243.1086Z" style="fill:#fadad1"/><path d="M209.3649,243.1086l-.9792,3.0136a1.7677,1.7677,0,0,1-1.6811,1.2214h-3.1685a1.7675,1.7675,0,0,0-1.039,3.1974l2.5635,1.8624a1.7677,1.7677,0,0,1,.6421,1.9762l-.9791,3.0135a1.7675,1.7675,0,0,0,2.72,1.9762l2.5635-1.8625a1.7679,1.7679,0,0,1,2.0779,0l2.5634,1.8625a1.7676,1.7676,0,0,0,2.72-1.9762l-.9792-3.0135a1.7676,1.7676,0,0,1,.6422-1.9762l2.5634-1.8624a1.7675,1.7675,0,0,0-1.0389-3.1974h-3.1686a1.768,1.768,0,0,1-1.6812-1.2214l-.979-3.0136A1.7676,1.7676,0,0,0,209.3649,243.1086Z" style="fill:#fadad1"/><rect x="206.7899" y="120.5841" width="92.7783" height="49.4014" style="fill:#3da2c1"/><polygon points="228.052 165.307 245.969 133.051 259.075 150.931 265.646 143.744 279.511 165.166 228.052 165.307" style="fill:#fef5f3"/><path d="M254.4892,128.4046a4.6466,4.6466,0,0,1,4.63-4.6352,4.5983,4.5983,0,0,1,4.6163,4.61,4.6481,4.6481,0,0,1-4.6311,4.6359A4.5991,4.5991,0,0,1,254.4892,128.4046Z" style="fill:#fef5f3"/><path d="M313.7956,85.4392H192.488a6.1343,6.1343,0,0,0-6.1343,6.1342V102.51H319.93V91.5733A6.1342,6.1342,0,0,0,313.7956,85.4392Z" style="fill:#4ec5ea"/><path d="M6.89,278.59a30.3481,30.3481,0,0,1,13.8781-6.5832c-1.2788-7.3245-.7548-14.967,3.3235-21.6051,4.4563-7.2535,13.7939-13.019,24.11-13.0479s20.47,6.8943,19.9478,14.9266c4.71-15.3364,25.3473-26.6255,45.4478-24.861s37.0014,16.3484,37.2191,32.1174c3.8247-5.0956,12.8777-8.7884,20.0621-6.9214,21.7065,5.641,7.9165,21.3647,14.7649,18.8448,35.8836-13.2038,47.505,15.0419,46.903,15.5583,7.2485.48,13.5524,3.5012,17.49,7.9039H.0871A19.4273,19.4273,0,0,1,6.89,278.59Z" style="fill:#78cdcd"/><path d="M202.3468,196.5126c.5228.6343,1.0687,1.2325,1.63,1.7947l-11.5114,9.4842c-.7072.583-1.9706.2187-2.8217-.8127s-.9659-2.3424-.2588-2.9253l11.5129-9.4841C201.3412,195.2284,201.8242,195.8781,202.3468,196.5126Z" style="fill:#1f5686"/><path d="M206.36,158.3344a26.9168,26.9168,0,1,0,38.0187,3.5552A27,27,0,0,0,206.36,158.3344Z" style="fill:#5495ff;opacity:0.30000000000000004"/><path d="M204.1266,155.6234a30.43,30.43,0,1,0,42.98,4.0184A30.5245,30.5245,0,0,0,204.1266,155.6234Zm2.2338,2.711a26.9167,26.9167,0,1,1-3.79,37.995A27.0019,27.0019,0,0,1,206.36,158.3344Z" style="fill:#1f5686"/><path d="M156.0344,234.066l.9506,1.1393c.949,1.138,3.0678.9351,4.7322-.4534l29.9443-24.895c1.6634-1.3885,2.2413-3.4363,1.2915-4.5747l-.9507-1.1388c-.95-1.1384-3.0688-.9351-4.7321.4528l-29.9444,24.8956C155.6625,230.88,155.0844,232.9281,156.0344,234.066Z" style="fill:#003547"/><path d="M150.9584,191.1522a7.6791,7.6791,0,0,0-.3849-1.8211,12.8474,12.8474,0,0,1,1.511-.3634c3.0139-.5555,13.3563-1.7083,13.5065-.65.1685,1.1872-1.5017.9688-2.8932,1.2044a14.6526,14.6526,0,0,1-1.9882.25s.9448,3.9253-1.4121,4.136a10.3043,10.3043,0,0,1-6.0745-.8082,6.5749,6.5749,0,0,0-2.3155-.5221A6.8862,6.8862,0,0,0,150.9584,191.1522Z" style="fill:#ffa473"/><path d="M152.5479,188.618s1.66.43,1.4768,3.0241a5.3346,5.3346,0,0,1-1.0577,2.8365s-8.97,4.0724-14.1467,3.8582c-2.3026,1.2938-7.6878.8447-8.5782,1.0559s-7.1131,4.544-9.27,3.6886-10.1461-6.0831-6.6976-11.3415,8.9865-1.9517,8.9865-1.9517,7.7187.4463,12.8482.6412C141.7093,189.0463,152.5479,188.618,152.5479,188.618Z" style="fill:#aec3ff"/><path d="M152.5479,188.618s1.66.43,1.4768,3.0241a5.3346,5.3346,0,0,1-1.0577,2.8365s-8.97,4.0724-14.1467,3.8582c-2.3026,1.2938-7.6878.8447-8.5782,1.0559s-7.1131,4.544-9.27,3.6886-10.1461-6.0831-6.6976-11.3415,8.9865-1.9517,8.9865-1.9517,7.7187.4463,12.8482.6412C141.7093,189.0463,152.5479,188.618,152.5479,188.618Z" style="fill:#d84b3d"/><polygon points="127.469 191.002 125.999 179.156 118.13 176.303 117.006 186.16 127.469 191.002" style="fill:#ffa473"/><path d="M123.0369,272.79s2.7628,1.1865,3.228,2.248-.4035,2.94-.4035,2.94a13.9053,13.9053,0,0,1-1.96,3.0551,9.2109,9.2109,0,0,1-2.6516,1.3836s-1.2425,3.3546-2.94,3.8044a3.5016,3.5016,0,0,1-4.1505-1.7292c-.8281-1.5484,1.1529-5.88,1.1529-5.88Z" style="fill:#121b28"/><path d="M150.3825,280.5823V286.66s-.73,3.1743.4755,4.4276,2.6514.8917,4.3236.3456,5.1447-4.62,5.1447-4.62a10.9737,10.9737,0,0,0,3.6316-2.34,7.5312,7.5312,0,0,0,1.7294-4.583,4.0295,4.0295,0,0,0-1.6429-3.0263c-1.8591-1.34-3.201-.5677-7.5227,2.1617l-2.3346-1.9021Z" style="fill:#121b28"/><path d="M115.3124,278.6125a4.5149,4.5149,0,0,0,6.3364,1.7569,5.0876,5.0876,0,0,0,2.31-2.7946c1.12-6.4885,2.78-10.8341,6.2181-21.8948,1.6878-4.0537,1.3569-10.9039-.07-17.3359,1.1217,2.1191,15.4333,13.0122,15.4333,13.0122-2.3034,7.7335-.5672,20.5306,2.684,34.76,4.24,1.3489,7.8167,1.1482,9.0756-4.3236a90.6046,90.6046,0,0,1-1.1829-13.0738c-.2283-7.8511.173-14.9484-.8923-20.9942-1.5218-9.38-4.2542-17.9228-9.2969-24.8749-.65-.8992-1.3488-1.7777-2.0822-2.6214l-4.7039-6.9175H121.8484l-3.86,8.3007c-2.82,4.0515-2.3685,13.4177.5656,18.27l1.3519,11.9484C115.0447,260.68,116.5023,264.9783,115.3124,278.6125Z" style="fill:#1a2e35"/><path d="M115.4623,215.565c.7331,2.6577,1.5066,9.3409,1.5066,9.3409,6.06,5.0174,17.4124,7.801,24.1253,4.0781a9.93,9.93,0,0,0,4.8342-6.1173,75.588,75.588,0,0,0-2.0965-12.9676,55.9263,55.9263,0,0,0-2.99-8.878c-1.34-3.0357-2.6922-7.2856-4.3416-8.8551l-4.96-1.9817-2.9555-1.18-4.1354-1.65a30.759,30.759,0,0,0-7.8126-3.0472l-2.0048-.4811-2.0619-.4926c-5.533,0-6.2317,8.7635-3.116,16.1407C109.4541,199.4746,114.7175,212.93,115.4623,215.565Z" style="fill:#ff735d"/><path d="M126.2264,183.7131l1.6182-1.4454a5.0861,5.0861,0,0,0,1.6961-3.9787c-.098-2.7223-.6437-7.0317-2.9539-9.5266-3.5636-3.8482-6.6985-3.93-10.6172-.8384s-4.4767,7.01-1.4725,11.484,4.0275,3.3792,4.0275,3.3792Z" style="fill:#ffa473"/><path d="M125.2769,175.1722a.8825.8825,0,0,0-.4829.5445,2.0228,2.0228,0,0,0-.0805.7423,5.9148,5.9148,0,0,0,.7963,2.7435,1.8458,1.8458,0,0,0,.47.5763.7882.7882,0,0,0,.7059.1426.7985.7985,0,0,0,.466-.5225,2.0492,2.0492,0,0,0,.0643-.719C127.183,177.86,126.9067,174.5352,125.2769,175.1722Z" style="fill:#ffa473"/><path d="M141.0993,228.9784c6.4746,4.0192,10.3553,11.7873,12.2785,22.3779,0,0,.6225,13.6063,2.7322,17.3486-.2213-7.8373.18-14.9346-.8853-20.98-1.5218-9.38-4.2542-17.9228-9.2969-24.8749A9.9,9.9,0,0,1,141.0993,228.9784Z" style="fill:#5c618a;opacity:0.5;mix-blend-mode:multiply"/><path d="M130.4165,202.9333c2.3983,8.4815,10.6828,13.2562,10.6828,26.0451a9.9088,9.9088,0,0,0,4.8285-6.1147,69.4437,69.4437,0,0,0-5.0843-21.8453Z" style="fill:#d84b3d"/><path d="M121.6488,280.3694a5.0876,5.0876,0,0,0,2.31-2.7946c1.12-6.4885,3.3832-12.6815,6.8212-23.7422,1.1238-3.8623.3318-11.351-.7223-15.1349l-3.2291,1.977c.5809,4.1782,1.5825,9.7169.3581,13.4453C123.0019,264.1018,122.956,270.1593,121.6488,280.3694Z" style="fill:#5c618a;opacity:0.5;mix-blend-mode:multiply"/><path d="M162.4873,219.38c.0806.0229,3.5833,1.09,3.5833,1.09s1.59,2.4409,2.975,2.8486,2.7674.8482,2.7674.8482,1.7639.5176,1.8375-.4a.8389.8389,0,0,0,1.0553-.9322s1.8232.3385,1.6707-.8442c0,0,2.7425,1.036,3.1129-.2461.2286-.7914-1.9346-1.3191-1.9346-1.3191a18.7483,18.7483,0,0,1-2.7993-1.0092c-.7542-.0012-3.0871-4.6874-3.6067-4.5807a12.3627,12.3627,0,0,0-2.5369.7333c-.7043.3557-4.1307-.9081-4.1307-.9081Z" style="fill:#ffa473"/><path d="M172.0019,217.0975a10.0974,10.0974,0,0,0,3.0069-2.5993c.6046-1.0848.3138-1.8312-.0819-1.9762-.5-.1832-.75.2236-.94.5021A4.4889,4.4889,0,0,1,173,214.0714a11.1883,11.1883,0,0,1-2.312.9046l-.6427.7824Z" style="fill:#ffa473"/><path d="M162.4873,219.38c.0806.0229,3.5833,1.09,3.5833,1.09s1.59,2.4409,2.975,2.8486,2.7674.8482,2.7674.8482,1.7639.5176,1.8375-.4a.8389.8389,0,0,0,1.0553-.9322s1.8232.3385,1.6707-.8442c0,0,2.7425,1.036,3.1129-.2461.2286-.7914-1.9346-1.3191-1.9346-1.3191a18.7483,18.7483,0,0,1-2.7993-1.0092c-.7542-.0012-3.0871-4.6874-3.6067-4.5807a12.3627,12.3627,0,0,0-2.5369.7333c-.7043.3557-4.1307-.9081-4.1307-.9081Z" style="fill:#f79974"/><path d="M172.0019,217.0975a10.0974,10.0974,0,0,0,3.0069-2.5993c.6046-1.0848.3138-1.8312-.0819-1.9762-.5-.1832-.75.2236-.94.5021A4.4889,4.4889,0,0,1,173,214.0714a11.1883,11.1883,0,0,1-2.312.9046l-.6427.7824Z" style="fill:#f79974"/><path d="M137.7571,192.9448l13.834,17.18L167.79,215.41c.8941,2.2773-.3371,4.0509-2.3535,5.6385-7.2177.1063-15.4965-1.53-19.6989-4.6879-6.511-3.74-9.4868-6.8108-15.321-13.4276C124.71,196.7024,132.909,188.7774,137.7571,192.9448Z" style="fill:#ff735d"/><path d="M128.5848,189.0044l-1.733-2.4571a24.8739,24.8739,0,0,1-9.4865-3.2218l-.9307,1.0739C117.2579,187.9435,124.2821,189.22,128.5848,189.0044Z" style="fill:#fff"/><path d="M119.7174,173.2505a2.6449,2.6449,0,0,1,1.1395-1.5054c1.7788-.9881,6.0155-2.1929,6.7714-4.0876.583-1.4613-1.713-3.1546-5.469-3.2948-3.28-.1224-8.2689.1962-10.68,5.8583a9.4481,9.4481,0,0,0,2.8276,10.372c3.2645,2.5772,3.2922,2.1948,3.2922,2.1948s1.9276-2.7255.5427-3.572c-.907-.5542-2.7322-4.0862-.5915-3.7482a3.5119,3.5119,0,0,1,2.57,1.5117l.1186-.0758Z" style="fill:#20324f"/><path d="M120.2735,181.2206s3.918,2.1,6.3706,2.1l.2077,3.227S122.9961,186.9735,120.2735,181.2206Z" style="fill:#d6835f"/><path d="M358.607,185.2129c-.6493,4.591-2.1061,7.0455-2.889,7.1574-3.2663.4667-6.1592-5.0393-6.1592-5.0393l-1.6748-7.5338s-1.4282-16.4465,8.916-20.3871C357.0737,159.5,359.6867,177.579,358.607,185.2129Z" style="fill:#ff735d"/><polygon points="325.686 173.067 311.521 180.853 297.296 158.468 314.501 152.492 325.686 173.067" style="fill:#232846"/><polygon points="324.788 172.395 311.541 179.676 298.238 158.742 314.327 153.154 324.788 172.395" style="fill:#e1e1e1"/><path d="M329.6388,168.48s-2.4654-1.1789-3.5475-1.7953-3.8659-1.4624-4.0909-1.6632-8.2518-.6963-8.7386-1.1162-.96.9845,1.12,1.44,4.9757,1.57,5.1341,2.3831-2.137,1.0057-2.37,1.6754.0653.52.3944.6635,2.73-1.1863,3.7857-.809,2.67-.145,3.4792.132,4.7441,1.6008,4.7441,1.6008Z" style="fill:#ffaa85"/><path d="M310.83,178.0446s-2.0712-1.8642-3.0734-2.644-2.8834-3.0736-3.16-3.2072-3.8694-7.5053-4.4548-7.8.5539-1.2883,1.7935.4948,3.4169,4.0777,4.2448,3.91.1155-2.4052.6562-2.8853.5152-.1406.7787.1133-.0548,3.0345.712,3.8825.9028,2.5727,1.4789,3.2273,3.3561,3.8472,3.3561,3.8472Z" style="fill:#ffaa85"/><path d="M355.4365,277.6827s.448,3.11.504,3.577,4.984-.2753,4.984-.2753l.3993-3.7022S356.0526,277.244,355.4365,277.6827Z" style="fill:#fff"/><path d="M355.888,280.8643a13.3063,13.3063,0,0,1-3.0715,2.6907c-1.51.8167-3.8833,1.14-4.7763,1.9857-.6446.61-2.3478,3.2378,3.9242,3.1848s9.2963.3712,9.9681-.6362-.9721-7.4356-.9721-7.4356A13.282,13.282,0,0,1,355.888,280.8643Z" style="fill:#375a64"/><path d="M320.1262,277.6827s.448,3.11.5039,3.577,4.9842-.2753,4.9842-.2753l.3991-3.7022S320.7423,277.244,320.1262,277.6827Z" style="fill:#fff"/><path d="M320.5777,280.8643a13.3063,13.3063,0,0,1-3.0715,2.6907c-1.51.8167-7.0675,1.4877-7.96,2.333-.6446.61-1.7165,3.0672,7.1085,2.8375,6.27-.1631,9.2961.3712,9.9681-.6362s-.9723-7.4356-.9723-7.4356S324.2505,281.2245,320.5777,280.8643Z" style="fill:#375a64"/><path d="M351.3556,197.7735s4.6305,7.357,4.2851,14.0071,1.679,13.9108,2.3747,20.8578c.7754,7.7448,3.949,26.08,4.064,30.2222s-.3822,19.4194-.3822,19.4194l-6.3526.1453s-5.4459-34.1016-6.8277-37.3722-8.2343-26.5872-8.4647-29.2038S351.3556,197.7735,351.3556,197.7735Z" style="fill:#1a2e35"/><path d="M326.98,198.77s-3.4894,18.2272-3.95,22.2973-.7677,19.6973-.998,22.2412-1.6673,35.1505-2.8956,38.93h8.1215s6.3662-24.2122,6.3662-34.7871,4.8163-22.99,7.9253-29.9669,10.2258-7.1425,12.137-20.0876C353.686,197.3971,329.5674,194.6645,326.98,198.77Z" style="fill:#1a2e35"/><path d="M343.6287,135.9206s-6.2153-2.3215-9.081,2.4095-2.59,14.2028.5431,15.3675,7.8391.5559,9.443-2.4047,3.0521-7.24,2.9824-10.1006S345.2607,136.746,343.6287,135.9206Z" style="fill:#ffaa85"/><path d="M335.7655,153.9142a5.3766,5.3766,0,0,1-.1689,2.5049c-.4274.8267,8.0524.8482,8.0524.8482a55.8757,55.8757,0,0,1,1.9933-8.2953C346.9473,145.1728,335.7655,153.9142,335.7655,153.9142Z" style="fill:#ffaa85"/><path d="M335.0934,156.32s.0267-1.5794.7427-1.7308,7.9021-.8424,8.7809-.4969v1.84S342.9239,156.9735,335.0934,156.32Z" style="fill:#e9d3cb"/><path d="M306.5729,174.9807a.019.019,0,0,1,.0118-.0009C306.5354,175.0013,306.5285,175.0032,306.5729,174.9807Z" style="fill:#2d3358"/><path d="M356.58,212.3136s-3.8115.1269-10.3115.8436-23.468-.0832-23.57-.8509,4.2212-24.788,4.0166-26.2214-.3144-6.5389-.3144-6.5389a35.9813,35.9813,0,0,1-3.2259,10.2291c-.6218,1.1254-2.7072,4.653-3.7121,3.8509-4.8653-3.8847-12.3992-18.523-12.877-18.6462.4016-.1745,3.5706-1.6338,4.0154-1.782.3891-.13,3.899,3.5863,6.0258,5.89.9483,1.0272,1.6216,1.7731,1.6216,1.7731.6141-1.3818,2.8512-10.0861,3.5461-13.0987,1.5678-6.7943,1.3266-7.0767,1.3266-7.0767,4.7551-1.4386,11.9728-4.3661,11.9728-4.3661l9.5238-.3879s8.74,1.924,12.1828,3.4787c.3265.1473-1.63,15.8248-1.63,15.8248s.5813,12.25.2391,17.5549C355.2523,195.2248,356.58,212.3136,356.58,212.3136Z" style="fill:#ff735d"/><path d="M318.2479,180.8608l-.7977,3.3781a26.7024,26.7024,0,0,1-.8239-5.1512C317.5746,180.1149,318.2479,180.8608,318.2479,180.8608Z" style="fill:#d84b3d"/><polygon points="303.844 157.267 303.016 155.845 309.538 153.594 310.366 155.009 303.844 157.267" style="fill:#232846"/><path d="M348.0049,137.5724a11.733,11.733,0,0,0-.9219-1.3912,5.6023,5.6023,0,0,0-1.4114-1.0284,9.65,9.65,0,0,0-4.1227-1.0207c-1.49-.056-2.9263.4592-4.3991.3935a1.3377,1.3377,0,0,1-1.3623-.8531,9.7013,9.7013,0,0,0-2.1959,3.5378c-.28,1.2247.4032,2.2044.4624,3.4221.0164.3387-.19,4.9189-.3032,4.8983l.8344.1516.4216-1.59a9.1044,9.1044,0,0,0,1.8541.9072c1.0456.3654.0315,3.3446,5.8407,4.2477,2.5056.39,3.11-.3793,3.11-.3793a7.337,7.337,0,0,0,.9817-1.8531C349.775,142.1565,349.26,139.253,348.0049,137.5724Z" style="fill:#20324f"/><path d="M335.173,142.8172c.1409-.5886,1.6371-2.27,2.21-.47s-.8657,4.2238-1.6686,4.0161S334.8169,144.309,335.173,142.8172Z" style="fill:#ffaa85"/><path d="M393.841,156.5823a18.1743,18.1743,0,0,0,6.4394-1.0264,6.0384,6.0384,0,0,1,6.3478,1.4813l8.4558,8.6989-6.0261-12.1589a6.105,6.105,0,0,1,.1127-5.5137,13.0824,13.0824,0,0,0,1.4584-5.7341c.1639-8.057-7.0865-14.7385-16.1943-14.9238s-16.6241,6.1959-16.7879,14.2529S384.7334,156.3969,393.841,156.5823Z" style="fill:#003547"/><path d="M400.8913,147.437H389.6768a1.1179,1.1179,0,0,1-1.118-1.1179h0a1.1178,1.1178,0,0,1,1.118-1.1178h11.2145a1.1178,1.1178,0,0,1,1.1179,1.1178h0A1.1178,1.1178,0,0,1,400.8913,147.437Z" style="fill:#fef5f3"/><path d="M400.8913,143.0925H389.6768a1.1179,1.1179,0,0,1-1.118-1.1179h0a1.118,1.118,0,0,1,1.118-1.1179h11.2145a1.118,1.118,0,0,1,1.1179,1.1179h0A1.1178,1.1178,0,0,1,400.8913,143.0925Z" style="fill:#fef5f3"/><path d="M400.8913,138.748H389.6768a1.1179,1.1179,0,0,1-1.118-1.1179h0a1.1179,1.1179,0,0,1,1.118-1.1179h11.2145a1.1179,1.1179,0,0,1,1.1179,1.1179h0A1.1179,1.1179,0,0,1,400.8913,138.748Z" style="fill:#fef5f3"/><path d="M99.2131,153.5962a18.1734,18.1734,0,0,0,6.4393-1.0264A6.0386,6.0386,0,0,1,112,154.0511l8.4558,8.6989L114.43,150.5912a6.1055,6.1055,0,0,1,.1126-5.5138,13.0825,13.0825,0,0,0,1.4585-5.7341c.1639-8.0569-7.0865-14.7385-16.1943-14.9238s-16.6241,6.1959-16.7879,14.2529S90.1054,153.4108,99.2131,153.5962Z" style="fill:#003547"/><path d="M106.2634,144.4509H95.0489a1.1178,1.1178,0,0,1-1.118-1.1178h0a1.1179,1.1179,0,0,1,1.118-1.1179h11.2145a1.1178,1.1178,0,0,1,1.1179,1.1179h0A1.1178,1.1178,0,0,1,106.2634,144.4509Z" style="fill:#fef5f3"/><path d="M106.2634,140.1064H95.0489a1.1179,1.1179,0,0,1-1.118-1.1179h0a1.118,1.118,0,0,1,1.118-1.1179h11.2145a1.118,1.118,0,0,1,1.1179,1.1179h0A1.1178,1.1178,0,0,1,106.2634,140.1064Z" style="fill:#fef5f3"/><path d="M106.2634,135.7619H95.0489a1.1179,1.1179,0,0,1-1.118-1.1179h0a1.1179,1.1179,0,0,1,1.118-1.1179h11.2145a1.1179,1.1179,0,0,1,1.1179,1.1179h0A1.1179,1.1179,0,0,1,106.2634,135.7619Z" style="fill:#fef5f3"/><path d="M396.3336,68.4354a9.7087,9.7087,0,0,1,2.3684-1.0293l.4878-2.3443,3.9607-.0694.57,2.3254a9.6958,9.6958,0,0,1,2.4032.9455l2.0018-1.3122,2.85,2.7517-1.2407,2.0461a9.698,9.698,0,0,1,1.0292,2.3689l2.344.4878.07,3.9606-2.3255.57a9.698,9.698,0,0,1-.9454,2.4029l1.3119,2.0019-2.7511,2.85L406.4208,85.15a9.7022,9.7022,0,0,1-2.3687,1.0292l-.488,2.3443-3.9606.0694-.57-2.3256a9.71,9.71,0,0,1-2.4031-.9454l-2.0017,1.3121-2.85-2.7515,1.2409-2.0464a9.6969,9.6969,0,0,1-1.0293-2.3686l-2.3441-.4879-.07-3.96,2.3256-.57a9.7158,9.7158,0,0,1,.9454-2.403l-1.312-2.0017,2.7513-2.85,2.0467,1.241Zm2.1114,5.2762a4.2494,4.2494,0,1,0,6.0086-.1056A4.2494,4.2494,0,0,0,398.445,73.7116Z" style="fill:none;stroke:#e1e1e1;stroke-miterlimit:10"/><path d="M165.1753,82.7052A18.7077,18.7077,0,1,1,146.4682,63.997,18.6347,18.6347,0,0,1,165.1753,82.7052Z" style="fill:#fef5f3"/><path d="M159.8481,92.7352a2.3286,2.3286,0,0,0-.314-.1845l-.0173-.0116-.0011.0021a39.6477,39.6477,0,0,0-7.9751-3.012l-.0038-.0009c-.8611-.2626-1.5117-.4334-1.736-.49l-.4024-.64a19.8892,19.8892,0,0,1-.0323-2.2519,7.9741,7.9741,0,0,0,1.6107-3.8793c.1082.0816.1922-.0962.1922-.0962-.06-.1066.9028-2.457.7294-2.9871-.0985-.3008-.2985-.2629-.4545-.1753.0234-.1372.0472-.2795.0717-.431,0,0,.3815-3.6036-1.4427-5.6113a2.0158,2.0158,0,0,0-.86-.2261c-2.9294-.8968-4.6867-.4965-5.7872-.0253-1.631,1.3361-1.7549,3.61-1.68,4.863.0324.2964.0665.5949.1.8854l.0014.0089c.0136.1159.0274.2286.041.3408-.1526-.0945-.3519-.142-.4629.1555a8.9491,8.9491,0,0,0,.606,3.0146s.1534.2407.2739.1316l.0018-.0054a8.6227,8.6227,0,0,0,1.58,4.1178c-.0465.8371-.1671,1.8211-.252,2.45l-.7247.7565,0,0h0c-.0377.0125-.0762.0251-.1149.0387v-.0048c-8.1886,2.185-10.5032,3.7061-10.5032,3.7061a2.1621,2.1621,0,0,0-.6277.97,18.7093,18.7093,0,0,0,29.1274.597A7.702,7.702,0,0,0,159.8481,92.7352Z" style="fill:#0a4359"/><path d="M377.5654,130.5572c2.6427-8.6975,3.9875-18.0229,1.9916-26.8912s-7.7514-17.21-16.16-20.6638-19.3429-.9358-24.1514,6.7784c-1.3117,2.1046-2.1271,4.8615-.9138,7.0244,1.954,3.4836,7.2257,2.74,10.74.8416a32.1355,32.1355,0,0,0,16.3943-29.8011A31.3883,31.3883,0,0,0,311.8744,47.92" style="fill:none;stroke:#4f2a3d;stroke-miterlimit:10;stroke-width:0.911231px;stroke-dasharray:1.8224600553512573"/><circle cx="409.8459" cy="111.8354" r="7.4115" style="fill:none;stroke:#0a4359;stroke-miterlimit:10;stroke-width:2px"/><circle cx="247.9077" cy="74.7008" r="3.7362" style="fill:none;stroke:#0a4359;stroke-miterlimit:10;stroke-width:2px"/><circle cx="181.2182" cy="38.8677" r="3.7362" style="fill:none;stroke:#0a4359;stroke-miterlimit:10;stroke-width:2px"/><circle cx="474.8508" cy="152.3392" r="3.7362" style="fill:none;stroke:#4ec5ea;stroke-miterlimit:10"/><circle cx="198.1394" cy="45.8352" r="3.7362" style="fill:none;stroke:#4ec5ea;stroke-miterlimit:10"/><path d="M126.7442,71.4566a5.9851,5.9851,0,1,1-5.9851-5.985A5.9851,5.9851,0,0,1,126.7442,71.4566Z" style="fill:none;stroke:#4ec5ea;stroke-miterlimit:10;stroke-width:2px"/><path d="M433.0162,226.9142h0a3.8112,3.8112,0,0,1,2.157-.6524h22.6555c4.7824,0,5.8006,3.4366,5.8006,7.6752v4.8762c0,4.24-1.0182,7.676-5.8006,7.676l-24.8125-.0273Z" style="fill:#4ec5ea"/><path d="M432.7229,226.2824c4.5717,0,5.42,3.2853,5.42,7.34V239.13c0,4.0538-.8483,7.34-5.42,7.34H375.8282v-1.2332h.2365l14.4631-1.2133,2.9232-10.1669s-5.6425-5.6167-6.0105-5.7622-11.3758-.5845-11.3758-.5845l-.2365-.0022v-1.2259Z" style="fill:#1872a0"/><path d="M380.2477,236.3755a47.6447,47.6447,0,0,0-.62-8.8613h51.93c4.1993,0,4.7461,3.0193,4.7461,6.7413v4.2414c0,3.7227-.5468,6.74-4.7461,6.74h-51.93S380.2477,243.8593,380.2477,236.3755Z" style="fill:#ddd1c3"/><path d="M424.9427,267.4326h0a4.7737,4.7737,0,0,1,2.6993-.8165H456c5.986,0,7.98,4.3021,7.98,9.6076v6.1036c0,5.3069-1.9937,9.6082-7.98,9.6082l-31.0572-.0347Z" style="fill:#f995b3"/><path d="M441.0661,266.5466c5.1754,0,7.226,4.1122,7.226,9.1857v6.8958c0,5.0741-2.0506,9.1871-7.226,9.1871H376.6736v-1.5429h.266l16.3694-1.5193,3.31-12.7251s-6.3873-7.0324-6.8026-7.2134-12.8766-.7308-12.8766-.7308l-.266-.0038v-1.5333Z" style="fill:#934454"/><path d="M381.8653,279.18c0-7.44-1.364-11.092-1.364-11.092h59.2459c4.7542,0,6.4626,3.7781,6.4626,8.4386v5.3076c0,4.66-1.7084,8.438-6.4626,8.438H380.5013S381.8653,288.5483,381.8653,279.18Z" style="fill:#ddd1c3"/><path d="M445.1442,281.4021c0-5.9484-2.1813-10.7729-8.2509-10.7729H380.8212a17.9637,17.9637,0,0,0-.6391-2.5411h59.5651c4.7542,0,6.4626,3.7781,6.4626,8.4386v5.3076a11.7437,11.7437,0,0,1-1.0656,5.307Z" style="fill:#c6c6c6"/><path d="M435.4266,238.4828c-.03-8.2752-1.7979-8.8744-6.7982-8.8744H379.8908a14.8377,14.8377,0,0,0-.5268-2.0942h51.615c5.1769-.1293,5.3247,3.1124,5.3247,6.9518v4.3723a9.6811,9.6811,0,0,1-.8771,4.3722Z" style="fill:#c6c6c6"/><path d="M425.0587,265.8979h0a3.8022,3.8022,0,0,1-2.151.65H400.3141c-4.7683,0-5.7761-3.4271-5.7761-7.6537v-4.863c0-4.2289,1.0078-7.6553,5.7761-7.6553l24.7446.0274Z" style="fill:#f99746"/><path d="M417.7425,246.4552c-5.1769,0-6.5151,3.2623-6.5151,7.29v5.471c0,4.0263,1.3382,7.2887,6.5151,7.2887h64.4184v-1.2236h-.2659l-16.377-1.2052-3.31-10.0982s6.3887-5.5789,6.8055-5.7238c.4167-.1426,12.8818-.5793,12.8818-.5793l.2659-.003v-1.2162Z" style="fill:#c6773c"/><path d="M477.9823,256.4441c0-5.9034,1.0648-8.7653,1.0648-8.7653H419.0623c-4.7551,0-5.7511,2.9972-5.7511,6.6962v4.2111c0,3.6976.996,6.6948,5.7511,6.6948h59.9848S477.9823,263.8769,477.9823,256.4441Z" style="fill:#fcf7f0"/><path d="M413.8543,258.0557c0-4.6406,2.1806-8.4047,8.2509-8.4047h56.0722a11.6149,11.6149,0,0,1,.6391-1.9825H419.2514c-4.7535,0-6.4626,2.9475-6.4626,6.5839v4.1416a7.486,7.486,0,0,0,1.0655,4.14Z" style="fill:#c6c6c6"/><path d="M418.6159,220.0161a18.1429,18.1429,0,0,0,6.2618,6.7857l14.6226.1033S416.51,216.2907,418.6159,220.0161Z" style="fill:#233862"/><path d="M435.4533,257.7274a1.3519,1.3519,0,0,1,.2308,1.4475l-.0038.0071a8.9836,8.9836,0,0,1-2.8614,3.0948c-.1719.137-.325.2614-.4583.3768-.0351.03-.07.06-.103.091-.027.0234-.0532.048-.0792.07-1.2561,1.1417-.7884,1.4087-3.047,3.7275-2.5756,2.6421-4.3361,2.6776-4.8353,2.4316-.4221-.21.4487-1.6143,1.4135-3.1934.0467-.076.0925-.1533.1406-.23.1285-.21.2562-.4231.3838-.6342,1.1311-1.9005.85-2.7981.6056-5.64-.1991-2.31-3.5-12.92-3.5-12.92l4.9054-.81s1.4161,8.44,3.0325,9.75c.8645.6981,1.8375.7137,2.6695,1.2326.0587.0359.1165.073.1729.111A6.429,6.429,0,0,1,435.4533,257.7274Z" style="fill:#ffb27d"/><path d="M435.4533,257.7274a1.3519,1.3519,0,0,1,.2308,1.4475l-.0038.0071c-.4962,1.2324-1.56,2.0326-2.8614,3.0948-.17.1392-.3247.2572-.4583.3768-.0351.03-.07.06-.103.091-.027.0234-.0532.048-.0792.07-1.2561,1.1417-.7884,1.4087-3.047,3.7275-2.5756,2.6421-4.3361,2.6776-4.8353,2.4316-.4221-.21.4487-1.6143,1.4135-3.1934a10.895,10.895,0,0,0,4.5812-3.3259c1.5533-1.9537,2.5979-4.4706,3.6565-5.9252.0587.0359.1165.073.1729.111A6.429,6.429,0,0,1,435.4533,257.7274Z" style="fill:#1a2e35"/><path d="M395.9675,254.3886c-.3131,1.51-2.4671,1.2427-4.8715.6371s-1.8368.0982-5.2619-.3055-4.4545-1.689-4.5556-2.1994c-.09-.453,1.6045-.6005,3.4226-.797.2287-.0239.4584-.0507.6882-.0774,2.0529-.2428,3.5644-1.5558,5.4351-2.63,1.7721-1.0173,4.4353-5.1936,4.4353-5.1936l4.6985.4055s-2.4934,3.7294-3.459,5.3518a5.68,5.68,0,0,0-.4841,3.2A6.0228,6.0228,0,0,1,395.9675,254.3886Z" style="fill:#ffb27d"/><path d="M391.096,255.0257c-2.4044-.6055-1.8368.0982-5.2619-.3055s-4.4545-1.689-4.5556-2.1994c-.09-.453,1.6045-.6005,3.4226-.797l.0167.0351a9.6648,9.6648,0,0,0,4.8985,1.56c2.3251.073,4.7931-.576,6.3988-.5386a6.0228,6.0228,0,0,1-.0476,1.6078C395.6544,255.8988,393.5,255.6313,391.096,255.0257Z" style="fill:#1a2e35"/><path d="M414.1952,224.4566l4.3111,11.8561,5.6283,15.4808a9.29,9.29,0,0,0,3.05-.2571,13.2139,13.2139,0,0,0,2.958-1.414s-1.4762-16.59-4.3809-26.1274a16.9464,16.9464,0,0,0-2.518-5.5488C418.6749,212.9691,414.1952,224.4566,414.1952,224.4566Z" style="fill:#07181a"/><path d="M418.5063,236.3127l5.6283,15.4808a9.29,9.29,0,0,0,3.05-.2571,13.2139,13.2139,0,0,0,2.958-1.414s-1.4762-16.59-4.3809-26.1274Z" style="fill:#1a2e35"/><path d="M458.2082,169.6664s-6.33-14.35-6.7283-17.56c-.277-2.2326-1.8142-10.5439-10.065-9.3614a11.2072,11.2072,0,0,0-4.6487,1.7573c-1.7913,1.21-4.3768,3.8219-1.4861,10.9865l-4.821,12.4429Z" style="fill:#1e0909"/><path d="M438.0014,166.1587c-.0306.0137,2.9456,1.5589,5.184.9466,2.1056-.5741,3.4814-3.3043,3.4525-3.31-.8918-.1771-1.1489-1.4025-1.13-6.6682l-.4031.0794-6.7781,1.3422s.1543,2.1332.1587,4.1426C438.49,164.3781,438.3877,165.9785,438.0014,166.1587Z" style="fill:#e2a864"/><path d="M438.3266,158.5483s.1543,2.1332.1587,4.1426c3.7931-.1069,5.798-3.567,6.6194-5.4848Z" style="fill:#b28052"/><path d="M437.06,160.4511s8.974.148,8.98-5.442,1.1686-9.3356-4.5609-9.6666-6.845,1.801-7.3009,3.6663S434.7257,160.2685,437.06,160.4511Z" style="fill:#e2a864"/><path d="M445.5339,146.3841s-6.1293-4.1906-8.0686-1.2928c-.588-.5043-1.6352-.8692-3.02.8094-2.08,2.5216-.2293,6.9793-.2293,6.9793.8542.1,1.0554-2.8308,1.5029-4.2543a7.1193,7.1193,0,0,1,1.997-2.6442c.7829,1.7651,2.9365,5.9888,5.9041,6.752,3.7709.97,5.4065-.0407,5.4065-.0407A10.6784,10.6784,0,0,1,445.5339,146.3841Z" style="fill:#1e0909"/><path d="M459.0408,203.1222c-.4839,1.3438.6337,10.2183-1.3558,9.9847-3.7929-.4431-9.4278-2.99-13.4883-4.7514-6.1905-2.6829-9.0044-.1616-10.9742-1.87s2.2512-5.5053-1.4068-23.1386c-1.2409-5.9795,6.6164-18.8092,6.6164-18.8092s.5439,3.4759,8.2058-.7431a70.384,70.384,0,0,1,6.0779,9.63c3.1431,5.9626,6.1539,13.1647,5.269,16.8763C456.2965,197.3773,460.4479,199.218,459.0408,203.1222Z" style="fill:#88c8ef"/><path d="M438.2426,164.4943l-3.3,11.0733s-2.2642,7.044-3.1688,8.5059c-2.1232,3.4329-5.5085,11.25-8.024,11.8419-1.2409.2926-4.1884-.2453-6.8013-2.2159-5.363-4.0449-6.4619,1.9762-6.4619,1.9762-2.5281-2.8442,2.2409-2.6431,2.2409-2.6431s7.1757-6.1217,8.49-6.0274c2.8632.2041,5.7769-13.615,8.4529-18.22C431.6046,165.455,438.2426,164.4943,438.2426,164.4943Z" style="fill:#ffb27d"/><path d="M458.7753,204.4494c-.4839,1.3438.8992,8.8911-1.09,8.6575-2.6253-1.1438-13.9666-5.5378-13.84-8.5148.1886-4.4081,2.1808-4.5487.7738-9.9894-1.13-4.3686,9.35-12.4913,11.0211-14.2569,3.1432,5.9624,3.23,6.2443,2.3449,9.9559C456.2965,197.3773,460.1824,200.5452,458.7753,204.4494Z" style="fill:#72a5c4"/><path d="M442.8249,194.4972s-1.8993-1.4772-3.6932-1.1255-2.6731,1.5828-2.6029,2.1455a3.2,3.2,0,0,0,2.3919,2.2864,25.9,25.9,0,0,0,5.276-.8442Z" style="fill:#ffb27d"/><path d="M446.6379,163.7949s7.3142.4506,9.8461,3.9821c3.5644,4.9712,8.9853,22.6859,7.6379,28.4121-.8917,3.79-21.8245,1.4035-21.8245,1.4035s-1.1947-3.4683.211-3.74c5.7851-1.1189,12.9439-3.1891,13.5067-3.7519s-4.3943-14.1232-4.3943-15.8116S446.6379,163.7949,446.6379,163.7949Z" style="fill:#ffb27d"/><path d="M416.3025,193.9451s-1.1283-2.7651-2.37-2.8779-5.1914-.7336-5.4736-.1693a3.9051,3.9051,0,0,0,.8463,3.3291c.8466.7336,6.0943,1.9187,6.0943,1.9187Z" style="fill:#c99765"/><path d="M458.0169,170.4209s-5.9344,4.7829-5.9344,6.2-7.883-9.123-7.883-9.123l2.4384-3.7031s5.09.3374,7.2161,1.666A8.69,8.69,0,0,1,458.0169,170.4209Z" style="fill:#88c8ef"/><path d="M438.4209,164.439s-8.3819.7865-9.7856,6.4976a5.8252,5.8252,0,0,1,3.21,3.4661c.1189.4413-1.86,4.074-.3252,8.9242.9033,2.8543,6.72,3.902,6.72,3.902Z" style="fill:#88c8ef"/><path d="M419.7743,205.7081c2.8855-.9083,11.0886.342,19.326,2.0149l1.747-2.8365,17.8265-1.2657s5.7873,13.0793,2.51,21.3642c-.4817,1.2175-1.6564,1.7244-3.2589,1.7387l-.0019.0024s-10.6334.1845-14.0766.16c-8.8606-.0626-19.5246-1.2584-21.5492-.7009-1.36.3746-2.6676.5841-3.5217,2.3455-2.1255,4.3836-19.8248,19.339-19.8248,19.339a15.4829,15.4829,0,0,1-3.8181-.419,3.7646,3.7646,0,0,1-1.6334-1.0471S413.267,207.7566,419.7743,205.7081Z" style="fill:#1a2e35"/><polygon points="442.024 207.77 415.973 207.587 408.274 188.044 434.285 188.227 442.024 207.77" style="fill:#314349"/><polygon points="415.673 206.825 450.074 207.068 450.069 207.827 415.973 207.587 415.673 206.825" style="fill:#314349"/><path d="M422.6178,197.889a.9026.9026,0,0,1,.8936-1.234,1.777,1.777,0,0,1,1.5872,1.2516.9027.9027,0,0,1-.8934,1.2342A1.7777,1.7777,0,0,1,422.6178,197.889Z" style="fill:#fff"/><path d="M428.32,226.9257l-9.1341.84s.8672-5.2029,6.07-5.2029c1.7452,0,13.0075,4.3358,13.0075,4.3358Z" style="fill:#07181a"/><path d="M459.0753,203.4855l1.1669,4.4259s-10.7056-.9572-15.9086-.9572S459.0753,203.4855,459.0753,203.4855Z" style="fill:#1a2e35"/><path d="M224.944,279.6862a22.7608,22.7608,0,0,1,10.4085-4.9374c-.959-5.4934-.566-11.2252,2.4927-16.2038a21.7958,21.7958,0,0,1,18.0824-9.786c7.7371-.0216,15.3523,5.1708,14.9608,11.195,3.5325-11.5023,19.0105-19.9692,34.0859-18.6458s27.7512,12.2614,27.9144,24.0881c2.8684-3.8217,9.6583-6.5913,15.0465-5.191,16.28,4.2307,5.9374,16.0236,11.0738,14.1336,26.9126-9.9029,35.6287,11.2814,35.1772,11.6687a19.2933,19.2933,0,0,1,13.1177,5.9279H219.842A14.57,14.57,0,0,1,224.944,279.6862Z" style="fill:#78cdcd"/><line x1="194.2958" y1="93.858" x2="204.2495" y2="93.858" style="fill:none;stroke:#fff;stroke-miterlimit:10;stroke-width:2px"/><path d="M451.7391,100.4112V121.367a1.4255,1.4255,0,0,1-1.4563,1.395H430.0319a1.4288,1.4288,0,0,1-1.4584-1.395V96.2483a1.4287,1.4287,0,0,1,1.4584-1.395h15.8005Z" style="fill:none;stroke:#4ec5ea;stroke-miterlimit:10"/><polyline points="451.739 100.411 445.832 100.411 445.832 94.853" style="fill:none;stroke:#4ec5ea;stroke-miterlimit:10"/><path d="M434.17,117.2484s.0649,1.0031,1.1617.6331c1.0936-.3789,3.1465-4.7446,3.8629-7.0851a46.5241,46.5241,0,0,0,1.6211-6.4923c.0777-1.0979-.6726-1.237-.9219-1.2009-.2459.0282-1.12.4095-.7068,1.8926a15.6732,15.6732,0,0,0,1.8229,4.1115,18.1208,18.1208,0,0,0,3.0489,3.8607,3.048,3.048,0,0,0,2.4955.9242c.96-.181,1.27-1.796-.45-1.796a17.27,17.27,0,0,0-5.2244.9249,21.0266,21.0266,0,0,0-5.6129,2.5826C434.3792,116.3188,434.17,116.7611,434.17,117.2484Z" style="fill:none;stroke:#4ec5ea;stroke-miterlimit:10"/><line x1="49.7222" y1="138.29" x2="62.6676" y2="138.29" style="fill:none;stroke:#4ec5ea;stroke-miterlimit:10"/><line x1="49.7222" y1="142.6411" x2="62.6676" y2="142.6411" style="fill:none;stroke:#4ec5ea;stroke-miterlimit:10"/><line x1="49.7222" y1="146.5221" x2="62.6676" y2="146.5221" style="fill:none;stroke:#4ec5ea;stroke-miterlimit:10"/><line x1="49.7222" y1="150.3472" x2="62.6676" y2="150.3472" style="fill:none;stroke:#4ec5ea;stroke-miterlimit:10"/><path d="M39.37,136.2062V128.45a1.6742,1.6742,0,0,1,1.7089-1.6347H59.5926l6.921,6.5124v24.5547a1.67,1.67,0,0,1-1.7063,1.6346H41.0785a1.6743,1.6743,0,0,1-1.7089-1.6346v-5.7212" style="fill:none;stroke:#4ec5ea;stroke-miterlimit:10"/><polyline points="66.514 133.328 59.593 133.328 59.593 126.816" style="fill:none;stroke:#4ec5ea;stroke-miterlimit:10"/><rect x="33.7067" y="137.9895" width="12.6036" height="12.0571" style="fill:none;stroke:#4ec5ea;stroke-miterlimit:10"/><path d="M39.1068,140.6339c.4953-.027.9907-.047,1.4861-.0719.3469,1.6835.7017,3.3641,1.0766,5.0408.2949-1.7317.621-3.4572.9362-5.1858.5218-.017,1.0433-.0451,1.5621-.075-.59,2.4174-1.1057,4.8538-1.7495,7.2563-.4357.2169-1.0874-.01-1.6036.0249-.3474-1.65-.7514-3.2922-1.0614-4.9518-.3053,1.6116-.7016,3.2083-1.0511,4.81-.5-.0249-1.0032-.0549-1.5069-.087-.4331-2.1954-.9415-4.376-1.3455-6.5753.446-.02.8943-.0382,1.34-.0531.2685,1.59.5733,3.1712.808,4.7619.3687-1.6307.7436-3.2623,1.1087-4.8939Z" style="fill:#4ec5ea"/><circle cx="299.7836" cy="54.7329" r="14.6246" transform="translate(197.7373 341.8783) rotate(-80.7825)" style="fill:none;stroke:#4ec5ea;stroke-miterlimit:10"/><line x1="314.4514" y1="54.733" x2="285.1158" y2="54.733" style="fill:none;stroke:#4ec5ea;stroke-miterlimit:10"/><line x1="299.7836" y1="40.1083" x2="299.7836" y2="69.3499" style="fill:none;stroke:#4ec5ea;stroke-miterlimit:10"/><ellipse cx="299.7836" cy="54.7329" rx="7.1608" ry="14.6246" style="fill:none;stroke:#4ec5ea;stroke-miterlimit:10"/><path d="M310.865,45.1945c-2.3115,2.1791-6.41,3.628-11.0814,3.628s-8.7721-1.45-11.0832-3.63" style="fill:none;stroke:#4ec5ea;stroke-miterlimit:10"/><path d="M288.7,64.2916c2.3114-2.1791,6.41-3.628,11.0815-3.628s8.7719,1.45,11.0831,3.63" style="fill:none;stroke:#4ec5ea;stroke-miterlimit:10"/><path d="M243.1577,250.9963c-2.6428-8.6975-3.9875-18.0229-1.9915-26.8912s7.7513-17.21,16.16-20.6638,19.3429-.9358,24.1514,6.7785c1.3118,2.1046,2.1271,4.8614.9139,7.0243-1.9539,3.4836-7.2257,2.74-10.74.8416a31.3883,31.3883,0,1,1,37.1973-49.7267" style="fill:none;stroke:#4f2a3d;stroke-miterlimit:10;stroke-width:0.911231px;stroke-dasharray:1.8224600553512573"/><path d="M195.5455,61.4424a10.0271,10.0271,0,1,1-10.0272-10.027A10.0272,10.0272,0,0,1,195.5455,61.4424Z" style="fill:none;stroke:#4ec5ea;stroke-miterlimit:10"/></g></svg>
